<mxfile host="app.diagrams.net" modified="2023-10-06T21:51:56.982Z" agent="Mozilla/5.0 (Windows NT 10.0; Win64; x64) AppleWebKit/537.36 (KHTML, like Gecko) Chrome/117.0.0.0 Safari/537.36" etag="CoIKnwIoXgKtrsHr420p" version="22.0.4" type="device">
  <diagram id="R2lEEEUBdFMjLlhIrx00" name="Page-1">
    <mxGraphModel dx="2534" dy="1608" grid="1" gridSize="10" guides="1" tooltips="1" connect="1" arrows="1" fold="1" page="1" pageScale="1" pageWidth="1100" pageHeight="850" math="0" shadow="0" extFonts="Permanent Marker^https://fonts.googleapis.com/css?family=Permanent+Marker">
      <root>
        <mxCell id="0" />
        <mxCell id="1" parent="0" />
        <mxCell id="mSlNE_2HwevDB6tWxFrl-90" style="edgeStyle=orthogonalEdgeStyle;rounded=0;orthogonalLoop=1;jettySize=auto;html=1;exitX=0.5;exitY=0;exitDx=0;exitDy=0;entryX=0;entryY=0.5;entryDx=0;entryDy=0;shadow=1;" parent="1" source="mSlNE_2HwevDB6tWxFrl-1" target="mSlNE_2HwevDB6tWxFrl-75" edge="1">
          <mxGeometry relative="1" as="geometry" />
        </mxCell>
        <mxCell id="mSlNE_2HwevDB6tWxFrl-108" style="edgeStyle=orthogonalEdgeStyle;rounded=0;orthogonalLoop=1;jettySize=auto;html=1;exitX=0.75;exitY=0;exitDx=0;exitDy=0;entryX=0;entryY=0.5;entryDx=0;entryDy=0;shadow=1;" parent="1" source="mSlNE_2HwevDB6tWxFrl-1" target="mSlNE_2HwevDB6tWxFrl-107" edge="1">
          <mxGeometry relative="1" as="geometry" />
        </mxCell>
        <mxCell id="mSlNE_2HwevDB6tWxFrl-112" style="edgeStyle=orthogonalEdgeStyle;rounded=0;orthogonalLoop=1;jettySize=auto;html=1;exitX=0;exitY=0;exitDx=0;exitDy=0;entryX=0.5;entryY=1;entryDx=0;entryDy=0;shadow=1;" parent="1" source="mSlNE_2HwevDB6tWxFrl-1" target="mSlNE_2HwevDB6tWxFrl-111" edge="1">
          <mxGeometry relative="1" as="geometry" />
        </mxCell>
        <mxCell id="mSlNE_2HwevDB6tWxFrl-114" style="edgeStyle=orthogonalEdgeStyle;rounded=0;orthogonalLoop=1;jettySize=auto;html=1;exitX=0.25;exitY=0;exitDx=0;exitDy=0;shadow=1;" parent="1" source="mSlNE_2HwevDB6tWxFrl-1" target="mSlNE_2HwevDB6tWxFrl-113" edge="1">
          <mxGeometry relative="1" as="geometry" />
        </mxCell>
        <mxCell id="mSlNE_2HwevDB6tWxFrl-116" style="edgeStyle=orthogonalEdgeStyle;rounded=0;orthogonalLoop=1;jettySize=auto;html=1;exitX=1;exitY=0;exitDx=0;exitDy=0;entryX=0;entryY=0.5;entryDx=0;entryDy=0;shadow=1;" parent="1" source="mSlNE_2HwevDB6tWxFrl-1" target="mSlNE_2HwevDB6tWxFrl-115" edge="1">
          <mxGeometry relative="1" as="geometry" />
        </mxCell>
        <mxCell id="mSlNE_2HwevDB6tWxFrl-117" style="edgeStyle=orthogonalEdgeStyle;rounded=0;orthogonalLoop=1;jettySize=auto;html=1;entryX=0.5;entryY=0;entryDx=0;entryDy=0;shadow=1;" parent="1" target="mSlNE_2HwevDB6tWxFrl-101" edge="1">
          <mxGeometry relative="1" as="geometry">
            <mxPoint x="350" y="80" as="sourcePoint" />
          </mxGeometry>
        </mxCell>
        <mxCell id="mSlNE_2HwevDB6tWxFrl-1" value="Sucursal" style="whiteSpace=wrap;html=1;align=center;shadow=1;" parent="1" vertex="1">
          <mxGeometry x="280" y="55" width="70" height="30" as="geometry" />
        </mxCell>
        <mxCell id="mSlNE_2HwevDB6tWxFrl-95" style="edgeStyle=orthogonalEdgeStyle;rounded=0;orthogonalLoop=1;jettySize=auto;html=1;exitX=0.25;exitY=0;exitDx=0;exitDy=0;shadow=1;" parent="1" source="mSlNE_2HwevDB6tWxFrl-2" target="mSlNE_2HwevDB6tWxFrl-74" edge="1">
          <mxGeometry relative="1" as="geometry" />
        </mxCell>
        <mxCell id="mSlNE_2HwevDB6tWxFrl-97" style="edgeStyle=orthogonalEdgeStyle;rounded=0;orthogonalLoop=1;jettySize=auto;html=1;exitX=0;exitY=0.25;exitDx=0;exitDy=0;entryX=0.5;entryY=1;entryDx=0;entryDy=0;shadow=1;" parent="1" source="mSlNE_2HwevDB6tWxFrl-2" target="mSlNE_2HwevDB6tWxFrl-96" edge="1">
          <mxGeometry relative="1" as="geometry" />
        </mxCell>
        <mxCell id="mSlNE_2HwevDB6tWxFrl-104" style="edgeStyle=orthogonalEdgeStyle;rounded=0;orthogonalLoop=1;jettySize=auto;html=1;exitX=0.75;exitY=0;exitDx=0;exitDy=0;shadow=1;" parent="1" source="mSlNE_2HwevDB6tWxFrl-2" target="mSlNE_2HwevDB6tWxFrl-103" edge="1">
          <mxGeometry relative="1" as="geometry" />
        </mxCell>
        <mxCell id="mSlNE_2HwevDB6tWxFrl-106" style="edgeStyle=orthogonalEdgeStyle;rounded=0;orthogonalLoop=1;jettySize=auto;html=1;exitX=0.6;exitY=1.133;exitDx=0;exitDy=0;entryX=0;entryY=0;entryDx=0;entryDy=0;shadow=1;exitPerimeter=0;" parent="1" source="mSlNE_2HwevDB6tWxFrl-2" target="mSlNE_2HwevDB6tWxFrl-105" edge="1">
          <mxGeometry relative="1" as="geometry" />
        </mxCell>
        <mxCell id="mSlNE_2HwevDB6tWxFrl-110" style="edgeStyle=orthogonalEdgeStyle;rounded=0;orthogonalLoop=1;jettySize=auto;html=1;exitX=0.25;exitY=1;exitDx=0;exitDy=0;shadow=1;" parent="1" source="mSlNE_2HwevDB6tWxFrl-2" target="mSlNE_2HwevDB6tWxFrl-109" edge="1">
          <mxGeometry relative="1" as="geometry">
            <Array as="points">
              <mxPoint x="125" y="310" />
              <mxPoint x="90" y="310" />
            </Array>
          </mxGeometry>
        </mxCell>
        <mxCell id="mSlNE_2HwevDB6tWxFrl-119" style="edgeStyle=orthogonalEdgeStyle;rounded=0;orthogonalLoop=1;jettySize=auto;html=1;exitX=0;exitY=0.5;exitDx=0;exitDy=0;entryX=1;entryY=0.5;entryDx=0;entryDy=0;shadow=1;" parent="1" source="mSlNE_2HwevDB6tWxFrl-2" target="mSlNE_2HwevDB6tWxFrl-118" edge="1">
          <mxGeometry relative="1" as="geometry">
            <mxPoint x="67.5" y="285" as="targetPoint" />
          </mxGeometry>
        </mxCell>
        <mxCell id="mSlNE_2HwevDB6tWxFrl-180" style="edgeStyle=orthogonalEdgeStyle;rounded=0;orthogonalLoop=1;jettySize=auto;html=1;exitX=1;exitY=0.5;exitDx=0;exitDy=0;entryX=0.5;entryY=1;entryDx=0;entryDy=0;shadow=1;" parent="1" source="mSlNE_2HwevDB6tWxFrl-2" target="mSlNE_2HwevDB6tWxFrl-179" edge="1">
          <mxGeometry relative="1" as="geometry" />
        </mxCell>
        <mxCell id="mSlNE_2HwevDB6tWxFrl-2" value="Proveedor" style="whiteSpace=wrap;html=1;align=center;shadow=1;" parent="1" vertex="1">
          <mxGeometry x="95" y="270" width="80" height="30" as="geometry" />
        </mxCell>
        <mxCell id="mSlNE_2HwevDB6tWxFrl-89" style="edgeStyle=orthogonalEdgeStyle;rounded=0;orthogonalLoop=1;jettySize=auto;html=1;entryX=0.5;entryY=1;entryDx=0;entryDy=0;exitX=0.75;exitY=0;exitDx=0;exitDy=0;shadow=1;" parent="1" source="mSlNE_2HwevDB6tWxFrl-3" target="mSlNE_2HwevDB6tWxFrl-66" edge="1">
          <mxGeometry relative="1" as="geometry">
            <mxPoint x="-30" y="160" as="sourcePoint" />
          </mxGeometry>
        </mxCell>
        <mxCell id="mSlNE_2HwevDB6tWxFrl-182" style="edgeStyle=orthogonalEdgeStyle;rounded=0;orthogonalLoop=1;jettySize=auto;html=1;exitX=0;exitY=0.25;exitDx=0;exitDy=0;entryX=1;entryY=0.5;entryDx=0;entryDy=0;shadow=1;" parent="1" source="mSlNE_2HwevDB6tWxFrl-3" target="mSlNE_2HwevDB6tWxFrl-181" edge="1">
          <mxGeometry relative="1" as="geometry" />
        </mxCell>
        <mxCell id="1jEjLnXPpBsbDHWZ4coB-38" style="edgeStyle=orthogonalEdgeStyle;rounded=0;orthogonalLoop=1;jettySize=auto;html=1;exitX=0;exitY=0.5;exitDx=0;exitDy=0;entryX=1;entryY=0.5;entryDx=0;entryDy=0;shadow=1;" parent="1" source="mSlNE_2HwevDB6tWxFrl-3" target="1jEjLnXPpBsbDHWZ4coB-37" edge="1">
          <mxGeometry relative="1" as="geometry" />
        </mxCell>
        <mxCell id="1jEjLnXPpBsbDHWZ4coB-39" style="edgeStyle=orthogonalEdgeStyle;rounded=0;orthogonalLoop=1;jettySize=auto;html=1;exitX=0;exitY=0.75;exitDx=0;exitDy=0;entryX=1;entryY=0.5;entryDx=0;entryDy=0;shadow=1;" parent="1" source="mSlNE_2HwevDB6tWxFrl-3" target="1jEjLnXPpBsbDHWZ4coB-40" edge="1">
          <mxGeometry relative="1" as="geometry">
            <mxPoint x="-70" y="210" as="targetPoint" />
          </mxGeometry>
        </mxCell>
        <mxCell id="1jEjLnXPpBsbDHWZ4coB-41" style="edgeStyle=orthogonalEdgeStyle;rounded=0;orthogonalLoop=1;jettySize=auto;html=1;exitX=0.25;exitY=0;exitDx=0;exitDy=0;entryX=0.5;entryY=1;entryDx=0;entryDy=0;shadow=1;" parent="1" source="mSlNE_2HwevDB6tWxFrl-3" target="1jEjLnXPpBsbDHWZ4coB-42" edge="1">
          <mxGeometry relative="1" as="geometry">
            <mxPoint x="-50" y="220" as="targetPoint" />
          </mxGeometry>
        </mxCell>
        <mxCell id="1jEjLnXPpBsbDHWZ4coB-63" style="edgeStyle=orthogonalEdgeStyle;rounded=0;orthogonalLoop=1;jettySize=auto;html=1;exitX=0;exitY=1;exitDx=0;exitDy=0;entryX=1;entryY=0.5;entryDx=0;entryDy=0;" parent="1" source="mSlNE_2HwevDB6tWxFrl-3" target="1jEjLnXPpBsbDHWZ4coB-62" edge="1">
          <mxGeometry relative="1" as="geometry">
            <Array as="points">
              <mxPoint x="-60" y="185" />
              <mxPoint x="-60" y="230" />
              <mxPoint x="-115" y="230" />
            </Array>
          </mxGeometry>
        </mxCell>
        <mxCell id="mSlNE_2HwevDB6tWxFrl-3" value="Habitaciones&amp;nbsp;" style="whiteSpace=wrap;html=1;align=center;shadow=1;" parent="1" vertex="1">
          <mxGeometry x="-40" y="155" width="80" height="30" as="geometry" />
        </mxCell>
        <mxCell id="mSlNE_2HwevDB6tWxFrl-91" style="edgeStyle=orthogonalEdgeStyle;rounded=0;orthogonalLoop=1;jettySize=auto;html=1;exitX=0.75;exitY=0;exitDx=0;exitDy=0;shadow=1;" parent="1" source="mSlNE_2HwevDB6tWxFrl-4" target="mSlNE_2HwevDB6tWxFrl-67" edge="1">
          <mxGeometry relative="1" as="geometry" />
        </mxCell>
        <mxCell id="1jEjLnXPpBsbDHWZ4coB-47" style="edgeStyle=orthogonalEdgeStyle;rounded=0;orthogonalLoop=1;jettySize=auto;html=1;exitX=0;exitY=0.75;exitDx=0;exitDy=0;" parent="1" source="mSlNE_2HwevDB6tWxFrl-4" target="1jEjLnXPpBsbDHWZ4coB-45" edge="1">
          <mxGeometry relative="1" as="geometry" />
        </mxCell>
        <mxCell id="1jEjLnXPpBsbDHWZ4coB-48" style="edgeStyle=orthogonalEdgeStyle;rounded=0;orthogonalLoop=1;jettySize=auto;html=1;exitX=0;exitY=0.25;exitDx=0;exitDy=0;entryX=1;entryY=0.5;entryDx=0;entryDy=0;" parent="1" source="mSlNE_2HwevDB6tWxFrl-4" target="1jEjLnXPpBsbDHWZ4coB-43" edge="1">
          <mxGeometry relative="1" as="geometry" />
        </mxCell>
        <mxCell id="1jEjLnXPpBsbDHWZ4coB-49" style="edgeStyle=orthogonalEdgeStyle;rounded=0;orthogonalLoop=1;jettySize=auto;html=1;exitX=0;exitY=0;exitDx=0;exitDy=0;" parent="1" source="mSlNE_2HwevDB6tWxFrl-4" target="1jEjLnXPpBsbDHWZ4coB-44" edge="1">
          <mxGeometry relative="1" as="geometry" />
        </mxCell>
        <mxCell id="1jEjLnXPpBsbDHWZ4coB-51" style="edgeStyle=orthogonalEdgeStyle;rounded=0;orthogonalLoop=1;jettySize=auto;html=1;exitX=0;exitY=1;exitDx=0;exitDy=0;entryX=1;entryY=0.5;entryDx=0;entryDy=0;" parent="1" source="mSlNE_2HwevDB6tWxFrl-4" target="1jEjLnXPpBsbDHWZ4coB-50" edge="1">
          <mxGeometry relative="1" as="geometry" />
        </mxCell>
        <mxCell id="1jEjLnXPpBsbDHWZ4coB-64" style="edgeStyle=orthogonalEdgeStyle;rounded=0;orthogonalLoop=1;jettySize=auto;html=1;exitX=0.75;exitY=1;exitDx=0;exitDy=0;" parent="1" source="mSlNE_2HwevDB6tWxFrl-4" target="1jEjLnXPpBsbDHWZ4coB-65" edge="1">
          <mxGeometry relative="1" as="geometry">
            <mxPoint x="-29" y="430" as="targetPoint" />
          </mxGeometry>
        </mxCell>
        <mxCell id="1jEjLnXPpBsbDHWZ4coB-67" style="edgeStyle=orthogonalEdgeStyle;rounded=0;orthogonalLoop=1;jettySize=auto;html=1;exitX=0.907;exitY=0.967;exitDx=0;exitDy=0;entryX=0;entryY=0.5;entryDx=0;entryDy=0;exitPerimeter=0;" parent="1" source="mSlNE_2HwevDB6tWxFrl-4" target="1jEjLnXPpBsbDHWZ4coB-66" edge="1">
          <mxGeometry relative="1" as="geometry">
            <Array as="points">
              <mxPoint x="-17" y="420" />
              <mxPoint x="15" y="420" />
            </Array>
          </mxGeometry>
        </mxCell>
        <mxCell id="mSlNE_2HwevDB6tWxFrl-4" value="Hospedaje" style="whiteSpace=wrap;html=1;align=center;shadow=1;" parent="1" vertex="1">
          <mxGeometry x="-85" y="370" width="75" height="30" as="geometry" />
        </mxCell>
        <mxCell id="mSlNE_2HwevDB6tWxFrl-64" style="edgeStyle=orthogonalEdgeStyle;rounded=0;orthogonalLoop=1;jettySize=auto;html=1;exitX=0;exitY=0.5;exitDx=0;exitDy=0;entryX=1;entryY=0.5;entryDx=0;entryDy=0;shadow=1;" parent="1" source="mSlNE_2HwevDB6tWxFrl-5" target="mSlNE_2HwevDB6tWxFrl-63" edge="1">
          <mxGeometry relative="1" as="geometry" />
        </mxCell>
        <mxCell id="1jEjLnXPpBsbDHWZ4coB-31" style="edgeStyle=orthogonalEdgeStyle;rounded=0;orthogonalLoop=1;jettySize=auto;html=1;exitX=0;exitY=0;exitDx=0;exitDy=0;entryX=0.5;entryY=1;entryDx=0;entryDy=0;shadow=1;" parent="1" source="mSlNE_2HwevDB6tWxFrl-5" target="1jEjLnXPpBsbDHWZ4coB-29" edge="1">
          <mxGeometry relative="1" as="geometry" />
        </mxCell>
        <mxCell id="1jEjLnXPpBsbDHWZ4coB-32" style="edgeStyle=orthogonalEdgeStyle;rounded=0;orthogonalLoop=1;jettySize=auto;html=1;exitX=0.25;exitY=0;exitDx=0;exitDy=0;entryX=0.5;entryY=1;entryDx=0;entryDy=0;shadow=1;" parent="1" source="mSlNE_2HwevDB6tWxFrl-5" target="1jEjLnXPpBsbDHWZ4coB-30" edge="1">
          <mxGeometry relative="1" as="geometry" />
        </mxCell>
        <mxCell id="1jEjLnXPpBsbDHWZ4coB-35" style="edgeStyle=orthogonalEdgeStyle;rounded=0;orthogonalLoop=1;jettySize=auto;html=1;exitX=0.5;exitY=0;exitDx=0;exitDy=0;entryX=0.5;entryY=1;entryDx=0;entryDy=0;shadow=1;" parent="1" source="mSlNE_2HwevDB6tWxFrl-5" target="1jEjLnXPpBsbDHWZ4coB-34" edge="1">
          <mxGeometry relative="1" as="geometry" />
        </mxCell>
        <mxCell id="mSlNE_2HwevDB6tWxFrl-5" value="Mantenimiento&amp;nbsp;" style="whiteSpace=wrap;html=1;align=center;rounded=0;shadow=1;" parent="1" vertex="1">
          <mxGeometry x="-45" y="-22.5" width="90" height="30" as="geometry" />
        </mxCell>
        <mxCell id="mSlNE_2HwevDB6tWxFrl-120" style="edgeStyle=orthogonalEdgeStyle;rounded=0;orthogonalLoop=1;jettySize=auto;html=1;exitX=0.5;exitY=0;exitDx=0;exitDy=0;entryX=0.5;entryY=1;entryDx=0;entryDy=0;shadow=1;" parent="1" source="mSlNE_2HwevDB6tWxFrl-6" target="mSlNE_2HwevDB6tWxFrl-72" edge="1">
          <mxGeometry relative="1" as="geometry" />
        </mxCell>
        <mxCell id="mSlNE_2HwevDB6tWxFrl-123" style="edgeStyle=orthogonalEdgeStyle;rounded=0;orthogonalLoop=1;jettySize=auto;html=1;entryX=0.5;entryY=1;entryDx=0;entryDy=0;shadow=1;" parent="1" target="mSlNE_2HwevDB6tWxFrl-122" edge="1">
          <mxGeometry relative="1" as="geometry">
            <mxPoint x="640" y="60" as="sourcePoint" />
          </mxGeometry>
        </mxCell>
        <mxCell id="mSlNE_2HwevDB6tWxFrl-125" style="edgeStyle=orthogonalEdgeStyle;rounded=0;orthogonalLoop=1;jettySize=auto;html=1;exitX=0.75;exitY=0;exitDx=0;exitDy=0;entryX=0;entryY=0.5;entryDx=0;entryDy=0;shadow=1;" parent="1" source="mSlNE_2HwevDB6tWxFrl-6" target="mSlNE_2HwevDB6tWxFrl-124" edge="1">
          <mxGeometry relative="1" as="geometry">
            <mxPoint x="660" y="30" as="targetPoint" />
          </mxGeometry>
        </mxCell>
        <mxCell id="mSlNE_2HwevDB6tWxFrl-127" style="edgeStyle=orthogonalEdgeStyle;rounded=0;orthogonalLoop=1;jettySize=auto;html=1;exitX=1;exitY=0.25;exitDx=0;exitDy=0;shadow=1;" parent="1" source="mSlNE_2HwevDB6tWxFrl-6" target="mSlNE_2HwevDB6tWxFrl-126" edge="1">
          <mxGeometry relative="1" as="geometry" />
        </mxCell>
        <mxCell id="mSlNE_2HwevDB6tWxFrl-129" style="edgeStyle=orthogonalEdgeStyle;rounded=0;orthogonalLoop=1;jettySize=auto;html=1;exitX=1;exitY=0.5;exitDx=0;exitDy=0;entryX=0;entryY=0.5;entryDx=0;entryDy=0;shadow=1;" parent="1" source="mSlNE_2HwevDB6tWxFrl-6" target="mSlNE_2HwevDB6tWxFrl-128" edge="1">
          <mxGeometry relative="1" as="geometry" />
        </mxCell>
        <mxCell id="mSlNE_2HwevDB6tWxFrl-131" style="edgeStyle=orthogonalEdgeStyle;rounded=0;orthogonalLoop=1;jettySize=auto;html=1;exitX=1;exitY=0.75;exitDx=0;exitDy=0;entryX=0;entryY=0.5;entryDx=0;entryDy=0;shadow=1;" parent="1" source="mSlNE_2HwevDB6tWxFrl-6" target="mSlNE_2HwevDB6tWxFrl-130" edge="1">
          <mxGeometry relative="1" as="geometry" />
        </mxCell>
        <mxCell id="sG3nrbQRyBPmfrfPCZkz-4" style="edgeStyle=orthogonalEdgeStyle;rounded=0;orthogonalLoop=1;jettySize=auto;html=1;exitX=0.25;exitY=0;exitDx=0;exitDy=0;entryX=0.5;entryY=1;entryDx=0;entryDy=0;" parent="1" source="mSlNE_2HwevDB6tWxFrl-6" target="sG3nrbQRyBPmfrfPCZkz-3" edge="1">
          <mxGeometry relative="1" as="geometry" />
        </mxCell>
        <mxCell id="mSlNE_2HwevDB6tWxFrl-6" value="Inventario" style="whiteSpace=wrap;html=1;align=center;shadow=1;" parent="1" vertex="1">
          <mxGeometry x="590" y="55" width="80" height="30" as="geometry" />
        </mxCell>
        <mxCell id="mSlNE_2HwevDB6tWxFrl-132" style="edgeStyle=orthogonalEdgeStyle;rounded=0;orthogonalLoop=1;jettySize=auto;html=1;exitX=0.75;exitY=1;exitDx=0;exitDy=0;entryX=0;entryY=0.5;entryDx=0;entryDy=0;shadow=1;" parent="1" source="mSlNE_2HwevDB6tWxFrl-7" target="mSlNE_2HwevDB6tWxFrl-71" edge="1">
          <mxGeometry relative="1" as="geometry" />
        </mxCell>
        <mxCell id="mSlNE_2HwevDB6tWxFrl-134" style="edgeStyle=orthogonalEdgeStyle;rounded=0;orthogonalLoop=1;jettySize=auto;html=1;exitX=0.5;exitY=1;exitDx=0;exitDy=0;entryX=0.5;entryY=0;entryDx=0;entryDy=0;shadow=1;" parent="1" source="mSlNE_2HwevDB6tWxFrl-7" target="mSlNE_2HwevDB6tWxFrl-133" edge="1">
          <mxGeometry relative="1" as="geometry" />
        </mxCell>
        <mxCell id="mSlNE_2HwevDB6tWxFrl-136" style="edgeStyle=orthogonalEdgeStyle;rounded=0;orthogonalLoop=1;jettySize=auto;html=1;exitX=0;exitY=1;exitDx=0;exitDy=0;shadow=1;" parent="1" source="mSlNE_2HwevDB6tWxFrl-7" target="mSlNE_2HwevDB6tWxFrl-135" edge="1">
          <mxGeometry relative="1" as="geometry" />
        </mxCell>
        <mxCell id="mSlNE_2HwevDB6tWxFrl-138" style="edgeStyle=orthogonalEdgeStyle;rounded=0;orthogonalLoop=1;jettySize=auto;html=1;exitX=0.25;exitY=1;exitDx=0;exitDy=0;entryX=0.5;entryY=0;entryDx=0;entryDy=0;shadow=1;" parent="1" source="mSlNE_2HwevDB6tWxFrl-7" target="mSlNE_2HwevDB6tWxFrl-137" edge="1">
          <mxGeometry relative="1" as="geometry" />
        </mxCell>
        <mxCell id="1jEjLnXPpBsbDHWZ4coB-17" style="edgeStyle=orthogonalEdgeStyle;rounded=0;orthogonalLoop=1;jettySize=auto;html=1;exitX=1;exitY=1;exitDx=0;exitDy=0;entryX=0;entryY=0.5;entryDx=0;entryDy=0;shadow=1;" parent="1" source="mSlNE_2HwevDB6tWxFrl-7" target="1jEjLnXPpBsbDHWZ4coB-16" edge="1">
          <mxGeometry relative="1" as="geometry" />
        </mxCell>
        <mxCell id="mSlNE_2HwevDB6tWxFrl-7" value="Productos" style="whiteSpace=wrap;html=1;align=center;shadow=1;" parent="1" vertex="1">
          <mxGeometry x="490" y="495" width="70" height="30" as="geometry" />
        </mxCell>
        <mxCell id="mSlNE_2HwevDB6tWxFrl-94" style="edgeStyle=orthogonalEdgeStyle;rounded=0;orthogonalLoop=1;jettySize=auto;html=1;exitX=0;exitY=0.75;exitDx=0;exitDy=0;entryX=0.5;entryY=0;entryDx=0;entryDy=0;shadow=1;" parent="1" source="mSlNE_2HwevDB6tWxFrl-8" target="mSlNE_2HwevDB6tWxFrl-70" edge="1">
          <mxGeometry relative="1" as="geometry" />
        </mxCell>
        <mxCell id="mSlNE_2HwevDB6tWxFrl-140" style="edgeStyle=orthogonalEdgeStyle;rounded=0;orthogonalLoop=1;jettySize=auto;html=1;exitX=1;exitY=1;exitDx=0;exitDy=0;entryX=0.5;entryY=0;entryDx=0;entryDy=0;shadow=1;" parent="1" source="mSlNE_2HwevDB6tWxFrl-8" target="mSlNE_2HwevDB6tWxFrl-159" edge="1">
          <mxGeometry relative="1" as="geometry">
            <mxPoint x="335" y="595" as="targetPoint" />
          </mxGeometry>
        </mxCell>
        <mxCell id="mSlNE_2HwevDB6tWxFrl-141" style="edgeStyle=orthogonalEdgeStyle;rounded=0;orthogonalLoop=1;jettySize=auto;html=1;shadow=1;" parent="1" target="mSlNE_2HwevDB6tWxFrl-142" edge="1">
          <mxGeometry relative="1" as="geometry">
            <mxPoint x="330" y="640" as="targetPoint" />
            <mxPoint x="300" y="520" as="sourcePoint" />
            <Array as="points">
              <mxPoint x="300" y="610" />
              <mxPoint x="360" y="610" />
            </Array>
          </mxGeometry>
        </mxCell>
        <mxCell id="mSlNE_2HwevDB6tWxFrl-143" style="edgeStyle=orthogonalEdgeStyle;rounded=0;orthogonalLoop=1;jettySize=auto;html=1;exitX=0;exitY=1;exitDx=0;exitDy=0;entryX=1;entryY=0.5;entryDx=0;entryDy=0;shadow=1;" parent="1" source="mSlNE_2HwevDB6tWxFrl-8" target="mSlNE_2HwevDB6tWxFrl-144" edge="1">
          <mxGeometry relative="1" as="geometry">
            <mxPoint x="210" y="600" as="targetPoint" />
          </mxGeometry>
        </mxCell>
        <mxCell id="mSlNE_2HwevDB6tWxFrl-145" style="edgeStyle=orthogonalEdgeStyle;rounded=0;orthogonalLoop=1;jettySize=auto;html=1;exitX=0.25;exitY=1;exitDx=0;exitDy=0;entryX=0;entryY=0.5;entryDx=0;entryDy=0;shadow=1;" parent="1" source="mSlNE_2HwevDB6tWxFrl-8" target="mSlNE_2HwevDB6tWxFrl-146" edge="1">
          <mxGeometry relative="1" as="geometry">
            <mxPoint x="300" y="650" as="targetPoint" />
            <Array as="points">
              <mxPoint x="273" y="590" />
              <mxPoint x="195" y="590" />
            </Array>
          </mxGeometry>
        </mxCell>
        <mxCell id="mSlNE_2HwevDB6tWxFrl-160" style="edgeStyle=orthogonalEdgeStyle;rounded=0;orthogonalLoop=1;jettySize=auto;html=1;exitX=0.5;exitY=1;exitDx=0;exitDy=0;entryX=0.5;entryY=0;entryDx=0;entryDy=0;shadow=1;" parent="1" source="mSlNE_2HwevDB6tWxFrl-8" target="mSlNE_2HwevDB6tWxFrl-161" edge="1">
          <mxGeometry relative="1" as="geometry">
            <mxPoint x="280" y="610" as="targetPoint" />
          </mxGeometry>
        </mxCell>
        <mxCell id="1jEjLnXPpBsbDHWZ4coB-19" style="edgeStyle=orthogonalEdgeStyle;rounded=0;orthogonalLoop=1;jettySize=auto;html=1;exitX=0.75;exitY=1;exitDx=0;exitDy=0;entryX=0.5;entryY=0;entryDx=0;entryDy=0;shadow=1;" parent="1" source="mSlNE_2HwevDB6tWxFrl-8" target="1jEjLnXPpBsbDHWZ4coB-20" edge="1">
          <mxGeometry relative="1" as="geometry">
            <mxPoint x="290" y="650" as="targetPoint" />
          </mxGeometry>
        </mxCell>
        <mxCell id="mSlNE_2HwevDB6tWxFrl-8" value="Pago" style="whiteSpace=wrap;html=1;align=center;shadow=1;" parent="1" vertex="1">
          <mxGeometry x="260" y="500" width="50" height="20" as="geometry" />
        </mxCell>
        <mxCell id="mSlNE_2HwevDB6tWxFrl-93" style="edgeStyle=orthogonalEdgeStyle;rounded=0;orthogonalLoop=1;jettySize=auto;html=1;exitX=0;exitY=0.5;exitDx=0;exitDy=0;entryX=1;entryY=0.5;entryDx=0;entryDy=0;shadow=1;" parent="1" source="mSlNE_2HwevDB6tWxFrl-10" target="mSlNE_2HwevDB6tWxFrl-69" edge="1">
          <mxGeometry relative="1" as="geometry" />
        </mxCell>
        <mxCell id="1jEjLnXPpBsbDHWZ4coB-54" style="edgeStyle=orthogonalEdgeStyle;rounded=0;orthogonalLoop=1;jettySize=auto;html=1;exitX=0;exitY=0.75;exitDx=0;exitDy=0;entryX=1;entryY=0.5;entryDx=0;entryDy=0;" parent="1" source="mSlNE_2HwevDB6tWxFrl-10" target="1jEjLnXPpBsbDHWZ4coB-55" edge="1">
          <mxGeometry relative="1" as="geometry">
            <mxPoint x="-40" y="810" as="targetPoint" />
          </mxGeometry>
        </mxCell>
        <mxCell id="1jEjLnXPpBsbDHWZ4coB-57" style="edgeStyle=orthogonalEdgeStyle;rounded=0;orthogonalLoop=1;jettySize=auto;html=1;exitX=0;exitY=1;exitDx=0;exitDy=0;entryX=1;entryY=0;entryDx=0;entryDy=0;" parent="1" source="mSlNE_2HwevDB6tWxFrl-10" target="1jEjLnXPpBsbDHWZ4coB-56" edge="1">
          <mxGeometry relative="1" as="geometry" />
        </mxCell>
        <mxCell id="1jEjLnXPpBsbDHWZ4coB-58" style="edgeStyle=orthogonalEdgeStyle;rounded=0;orthogonalLoop=1;jettySize=auto;html=1;exitX=0.25;exitY=1;exitDx=0;exitDy=0;entryX=0.5;entryY=0;entryDx=0;entryDy=0;" parent="1" source="mSlNE_2HwevDB6tWxFrl-10" target="1jEjLnXPpBsbDHWZ4coB-59" edge="1">
          <mxGeometry relative="1" as="geometry">
            <mxPoint x="16" y="840" as="targetPoint" />
          </mxGeometry>
        </mxCell>
        <mxCell id="mSlNE_2HwevDB6tWxFrl-10" value="Vehículos" style="whiteSpace=wrap;html=1;align=center;shadow=1;" parent="1" vertex="1">
          <mxGeometry x="-2.5" y="780" width="75" height="30" as="geometry" />
        </mxCell>
        <mxCell id="mSlNE_2HwevDB6tWxFrl-92" style="edgeStyle=orthogonalEdgeStyle;rounded=0;orthogonalLoop=1;jettySize=auto;html=1;exitX=0;exitY=0;exitDx=0;exitDy=0;entryX=1;entryY=0.5;entryDx=0;entryDy=0;shadow=1;" parent="1" source="mSlNE_2HwevDB6tWxFrl-11" target="mSlNE_2HwevDB6tWxFrl-68" edge="1">
          <mxGeometry relative="1" as="geometry">
            <Array as="points">
              <mxPoint x="-75" y="563" />
              <mxPoint x="-100" y="563" />
            </Array>
          </mxGeometry>
        </mxCell>
        <mxCell id="mSlNE_2HwevDB6tWxFrl-153" style="edgeStyle=orthogonalEdgeStyle;rounded=0;orthogonalLoop=1;jettySize=auto;html=1;exitX=0.25;exitY=1;exitDx=0;exitDy=0;shadow=1;" parent="1" source="mSlNE_2HwevDB6tWxFrl-11" target="mSlNE_2HwevDB6tWxFrl-152" edge="1">
          <mxGeometry relative="1" as="geometry" />
        </mxCell>
        <mxCell id="mSlNE_2HwevDB6tWxFrl-154" style="edgeStyle=orthogonalEdgeStyle;rounded=0;orthogonalLoop=1;jettySize=auto;html=1;exitX=0.75;exitY=1;exitDx=0;exitDy=0;entryX=0;entryY=0.5;entryDx=0;entryDy=0;shadow=1;" parent="1" source="mSlNE_2HwevDB6tWxFrl-11" target="mSlNE_2HwevDB6tWxFrl-147" edge="1">
          <mxGeometry relative="1" as="geometry" />
        </mxCell>
        <mxCell id="mSlNE_2HwevDB6tWxFrl-155" style="edgeStyle=orthogonalEdgeStyle;rounded=0;orthogonalLoop=1;jettySize=auto;html=1;exitX=1;exitY=1;exitDx=0;exitDy=0;entryX=0;entryY=0.5;entryDx=0;entryDy=0;shadow=1;" parent="1" source="mSlNE_2HwevDB6tWxFrl-11" target="mSlNE_2HwevDB6tWxFrl-150" edge="1">
          <mxGeometry relative="1" as="geometry">
            <Array as="points">
              <mxPoint x="30" y="590" />
              <mxPoint x="30" y="575" />
            </Array>
          </mxGeometry>
        </mxCell>
        <mxCell id="mSlNE_2HwevDB6tWxFrl-156" style="edgeStyle=orthogonalEdgeStyle;rounded=0;orthogonalLoop=1;jettySize=auto;html=1;exitX=1;exitY=0.5;exitDx=0;exitDy=0;entryX=0.5;entryY=1;entryDx=0;entryDy=0;shadow=1;" parent="1" source="mSlNE_2HwevDB6tWxFrl-11" target="mSlNE_2HwevDB6tWxFrl-148" edge="1">
          <mxGeometry relative="1" as="geometry" />
        </mxCell>
        <mxCell id="mSlNE_2HwevDB6tWxFrl-157" style="edgeStyle=orthogonalEdgeStyle;rounded=0;orthogonalLoop=1;jettySize=auto;html=1;exitX=0;exitY=1;exitDx=0;exitDy=0;entryX=1;entryY=0.5;entryDx=0;entryDy=0;shadow=1;" parent="1" source="mSlNE_2HwevDB6tWxFrl-11" target="mSlNE_2HwevDB6tWxFrl-151" edge="1">
          <mxGeometry relative="1" as="geometry" />
        </mxCell>
        <mxCell id="mSlNE_2HwevDB6tWxFrl-158" style="edgeStyle=orthogonalEdgeStyle;rounded=0;orthogonalLoop=1;jettySize=auto;html=1;exitX=0.25;exitY=0;exitDx=0;exitDy=0;entryX=0.617;entryY=1;entryDx=0;entryDy=0;entryPerimeter=0;shadow=1;" parent="1" source="mSlNE_2HwevDB6tWxFrl-11" target="mSlNE_2HwevDB6tWxFrl-149" edge="1">
          <mxGeometry relative="1" as="geometry" />
        </mxCell>
        <mxCell id="1jEjLnXPpBsbDHWZ4coB-53" style="edgeStyle=orthogonalEdgeStyle;rounded=0;orthogonalLoop=1;jettySize=auto;html=1;exitX=0;exitY=0.75;exitDx=0;exitDy=0;" parent="1" source="mSlNE_2HwevDB6tWxFrl-11" target="1jEjLnXPpBsbDHWZ4coB-52" edge="1">
          <mxGeometry relative="1" as="geometry" />
        </mxCell>
        <mxCell id="mSlNE_2HwevDB6tWxFrl-11" value="Huésped&amp;nbsp;" style="whiteSpace=wrap;html=1;align=center;shadow=1;" parent="1" vertex="1">
          <mxGeometry x="-75" y="560" width="70" height="30" as="geometry" />
        </mxCell>
        <mxCell id="mSlNE_2HwevDB6tWxFrl-82" style="edgeStyle=orthogonalEdgeStyle;rounded=0;orthogonalLoop=1;jettySize=auto;html=1;exitX=0.5;exitY=0;exitDx=0;exitDy=0;entryX=0.5;entryY=1;entryDx=0;entryDy=0;shadow=1;" parent="1" source="mSlNE_2HwevDB6tWxFrl-12" target="mSlNE_2HwevDB6tWxFrl-80" edge="1">
          <mxGeometry relative="1" as="geometry" />
        </mxCell>
        <mxCell id="mSlNE_2HwevDB6tWxFrl-83" style="edgeStyle=orthogonalEdgeStyle;rounded=0;orthogonalLoop=1;jettySize=auto;html=1;exitX=0.5;exitY=1;exitDx=0;exitDy=0;entryX=0.5;entryY=0;entryDx=0;entryDy=0;shadow=1;" parent="1" source="mSlNE_2HwevDB6tWxFrl-12" target="mSlNE_2HwevDB6tWxFrl-78" edge="1">
          <mxGeometry relative="1" as="geometry" />
        </mxCell>
        <mxCell id="mSlNE_2HwevDB6tWxFrl-84" style="edgeStyle=orthogonalEdgeStyle;rounded=0;orthogonalLoop=1;jettySize=auto;html=1;exitX=0.863;exitY=0.967;exitDx=0;exitDy=0;entryX=0.5;entryY=0;entryDx=0;entryDy=0;exitPerimeter=0;shadow=1;" parent="1" source="mSlNE_2HwevDB6tWxFrl-12" target="mSlNE_2HwevDB6tWxFrl-79" edge="1">
          <mxGeometry relative="1" as="geometry" />
        </mxCell>
        <mxCell id="mSlNE_2HwevDB6tWxFrl-85" style="edgeStyle=orthogonalEdgeStyle;rounded=0;orthogonalLoop=1;jettySize=auto;html=1;exitX=0.75;exitY=0;exitDx=0;exitDy=0;entryX=0.5;entryY=1;entryDx=0;entryDy=0;shadow=1;" parent="1" source="mSlNE_2HwevDB6tWxFrl-12" target="mSlNE_2HwevDB6tWxFrl-73" edge="1">
          <mxGeometry relative="1" as="geometry" />
        </mxCell>
        <mxCell id="mSlNE_2HwevDB6tWxFrl-86" style="edgeStyle=orthogonalEdgeStyle;rounded=0;orthogonalLoop=1;jettySize=auto;html=1;exitX=0.375;exitY=1.067;exitDx=0;exitDy=0;exitPerimeter=0;shadow=1;" parent="1" source="mSlNE_2HwevDB6tWxFrl-12" target="mSlNE_2HwevDB6tWxFrl-76" edge="1">
          <mxGeometry relative="1" as="geometry" />
        </mxCell>
        <mxCell id="mSlNE_2HwevDB6tWxFrl-87" style="edgeStyle=orthogonalEdgeStyle;rounded=0;orthogonalLoop=1;jettySize=auto;html=1;exitX=0.675;exitY=0.033;exitDx=0;exitDy=0;entryX=0.5;entryY=1;entryDx=0;entryDy=0;exitPerimeter=0;shadow=1;" parent="1" source="mSlNE_2HwevDB6tWxFrl-12" target="mSlNE_2HwevDB6tWxFrl-65" edge="1">
          <mxGeometry relative="1" as="geometry" />
        </mxCell>
        <mxCell id="mSlNE_2HwevDB6tWxFrl-88" style="edgeStyle=orthogonalEdgeStyle;rounded=0;orthogonalLoop=1;jettySize=auto;html=1;exitX=1;exitY=0.25;exitDx=0;exitDy=0;entryX=0.5;entryY=1;entryDx=0;entryDy=0;shadow=1;" parent="1" source="mSlNE_2HwevDB6tWxFrl-12" target="mSlNE_2HwevDB6tWxFrl-77" edge="1">
          <mxGeometry relative="1" as="geometry" />
        </mxCell>
        <mxCell id="mSlNE_2HwevDB6tWxFrl-12" value="Empleados&amp;nbsp;" style="whiteSpace=wrap;html=1;align=center;shadow=1;" parent="1" vertex="1">
          <mxGeometry x="375" y="290" width="80" height="30" as="geometry" />
        </mxCell>
        <mxCell id="mSlNE_2HwevDB6tWxFrl-17" value="" style="edgeStyle=orthogonalEdgeStyle;fontSize=12;html=1;endArrow=ERoneToMany;rounded=0;entryX=0.5;entryY=0;entryDx=0;entryDy=0;exitX=0.5;exitY=1;exitDx=0;exitDy=0;shadow=1;" parent="1" source="mSlNE_2HwevDB6tWxFrl-38" target="mSlNE_2HwevDB6tWxFrl-4" edge="1">
          <mxGeometry width="100" height="100" relative="1" as="geometry">
            <mxPoint x="130" y="220" as="sourcePoint" />
            <mxPoint x="160" y="100" as="targetPoint" />
          </mxGeometry>
        </mxCell>
        <mxCell id="mSlNE_2HwevDB6tWxFrl-18" value="" style="edgeStyle=orthogonalEdgeStyle;fontSize=12;html=1;endArrow=ERoneToMany;rounded=0;entryX=0.5;entryY=1;entryDx=0;entryDy=0;shadow=1;" parent="1" source="mSlNE_2HwevDB6tWxFrl-40" target="mSlNE_2HwevDB6tWxFrl-4" edge="1">
          <mxGeometry width="100" height="100" relative="1" as="geometry">
            <mxPoint x="130" y="260" as="sourcePoint" />
            <mxPoint x="155" y="330" as="targetPoint" />
          </mxGeometry>
        </mxCell>
        <mxCell id="mSlNE_2HwevDB6tWxFrl-19" value="" style="edgeStyle=orthogonalEdgeStyle;fontSize=12;html=1;endArrow=ERoneToMany;rounded=0;entryX=1;entryY=0.75;entryDx=0;entryDy=0;exitX=0;exitY=0.5;exitDx=0;exitDy=0;shadow=1;" parent="1" source="mSlNE_2HwevDB6tWxFrl-37" target="mSlNE_2HwevDB6tWxFrl-3" edge="1">
          <mxGeometry width="100" height="100" relative="1" as="geometry">
            <mxPoint x="130" y="220" as="sourcePoint" />
            <mxPoint x="160" y="100" as="targetPoint" />
          </mxGeometry>
        </mxCell>
        <mxCell id="mSlNE_2HwevDB6tWxFrl-21" value="" style="edgeStyle=orthogonalEdgeStyle;fontSize=12;html=1;endArrow=ERoneToMany;rounded=0;entryX=0;entryY=0.25;entryDx=0;entryDy=0;shadow=1;exitX=1;exitY=0.5;exitDx=0;exitDy=0;" parent="1" source="mSlNE_2HwevDB6tWxFrl-44" target="mSlNE_2HwevDB6tWxFrl-8" edge="1">
          <mxGeometry width="100" height="100" relative="1" as="geometry">
            <mxPoint x="130" y="260" as="sourcePoint" />
            <mxPoint x="155" y="330" as="targetPoint" />
          </mxGeometry>
        </mxCell>
        <mxCell id="mSlNE_2HwevDB6tWxFrl-23" value="" style="edgeStyle=orthogonalEdgeStyle;fontSize=12;html=1;endArrow=ERoneToMany;rounded=0;entryX=1;entryY=0.5;entryDx=0;entryDy=0;shadow=1;" parent="1" source="mSlNE_2HwevDB6tWxFrl-46" target="mSlNE_2HwevDB6tWxFrl-8" edge="1">
          <mxGeometry width="100" height="100" relative="1" as="geometry">
            <mxPoint x="300" y="520" as="sourcePoint" />
            <mxPoint x="400" y="420" as="targetPoint" />
          </mxGeometry>
        </mxCell>
        <mxCell id="mSlNE_2HwevDB6tWxFrl-24" value="" style="edgeStyle=orthogonalEdgeStyle;fontSize=12;html=1;endArrow=ERoneToMany;rounded=0;entryX=0;entryY=0.5;entryDx=0;entryDy=0;exitX=1;exitY=0.5;exitDx=0;exitDy=0;shadow=1;" parent="1" source="mSlNE_2HwevDB6tWxFrl-58" target="mSlNE_2HwevDB6tWxFrl-6" edge="1">
          <mxGeometry width="100" height="100" relative="1" as="geometry">
            <mxPoint x="130" y="220" as="sourcePoint" />
            <mxPoint x="160" y="100" as="targetPoint" />
          </mxGeometry>
        </mxCell>
        <mxCell id="mSlNE_2HwevDB6tWxFrl-25" value="" style="edgeStyle=orthogonalEdgeStyle;fontSize=12;html=1;endArrow=ERoneToMany;rounded=0;entryX=0.5;entryY=1;entryDx=0;entryDy=0;shadow=1;exitX=0.5;exitY=0;exitDx=0;exitDy=0;" parent="1" source="mSlNE_2HwevDB6tWxFrl-51" target="mSlNE_2HwevDB6tWxFrl-6" edge="1">
          <mxGeometry width="100" height="100" relative="1" as="geometry">
            <mxPoint x="370" y="440" as="sourcePoint" />
            <mxPoint x="470" y="340" as="targetPoint" />
          </mxGeometry>
        </mxCell>
        <mxCell id="mSlNE_2HwevDB6tWxFrl-26" value="" style="edgeStyle=orthogonalEdgeStyle;fontSize=12;html=1;endArrow=ERoneToMany;rounded=0;exitX=0.5;exitY=1;exitDx=0;exitDy=0;shadow=1;" parent="1" source="mSlNE_2HwevDB6tWxFrl-43" target="mSlNE_2HwevDB6tWxFrl-10" edge="1">
          <mxGeometry width="100" height="100" relative="1" as="geometry">
            <mxPoint x="130" y="460" as="sourcePoint" />
            <mxPoint x="155" y="370" as="targetPoint" />
          </mxGeometry>
        </mxCell>
        <mxCell id="mSlNE_2HwevDB6tWxFrl-27" value="" style="edgeStyle=orthogonalEdgeStyle;fontSize=12;html=1;endArrow=ERoneToMany;rounded=0;entryX=0.25;entryY=0;entryDx=0;entryDy=0;exitX=0.5;exitY=1;exitDx=0;exitDy=0;shadow=1;" parent="1" source="mSlNE_2HwevDB6tWxFrl-57" target="mSlNE_2HwevDB6tWxFrl-12" edge="1">
          <mxGeometry width="100" height="100" relative="1" as="geometry">
            <mxPoint x="600" y="230" as="sourcePoint" />
            <mxPoint x="400" y="330" as="targetPoint" />
          </mxGeometry>
        </mxCell>
        <mxCell id="mSlNE_2HwevDB6tWxFrl-28" value="" style="edgeStyle=orthogonalEdgeStyle;fontSize=12;html=1;endArrow=ERoneToMany;rounded=0;exitX=0.5;exitY=1;exitDx=0;exitDy=0;shadow=1;" parent="1" source="mSlNE_2HwevDB6tWxFrl-55" target="mSlNE_2HwevDB6tWxFrl-2" edge="1">
          <mxGeometry width="100" height="100" relative="1" as="geometry">
            <mxPoint x="160" y="290" as="sourcePoint" />
            <mxPoint x="325" y="330" as="targetPoint" />
          </mxGeometry>
        </mxCell>
        <mxCell id="mSlNE_2HwevDB6tWxFrl-29" value="" style="edgeStyle=orthogonalEdgeStyle;fontSize=12;html=1;endArrow=ERoneToMany;rounded=0;entryX=1;entryY=0.75;entryDx=0;entryDy=0;exitX=0.5;exitY=1;exitDx=0;exitDy=0;shadow=1;startArrow=ERmany;startFill=0;endFill=0;" parent="1" source="mSlNE_2HwevDB6tWxFrl-52" target="mSlNE_2HwevDB6tWxFrl-7" edge="1">
          <mxGeometry width="100" height="100" relative="1" as="geometry">
            <mxPoint x="350" y="340" as="sourcePoint" />
            <mxPoint x="535" y="450" as="targetPoint" />
          </mxGeometry>
        </mxCell>
        <mxCell id="mSlNE_2HwevDB6tWxFrl-30" value="" style="edgeStyle=orthogonalEdgeStyle;fontSize=12;html=1;endArrow=ERone;startArrow=ERmany;rounded=0;entryX=0.5;entryY=1;entryDx=0;entryDy=0;shadow=1;startFill=0;endFill=0;" parent="1" source="mSlNE_2HwevDB6tWxFrl-35" target="mSlNE_2HwevDB6tWxFrl-5" edge="1">
          <mxGeometry width="100" height="100" relative="1" as="geometry">
            <mxPoint x="370" y="440" as="sourcePoint" />
            <mxPoint x="470" y="340" as="targetPoint" />
          </mxGeometry>
        </mxCell>
        <mxCell id="mSlNE_2HwevDB6tWxFrl-31" value="" style="edgeStyle=orthogonalEdgeStyle;fontSize=12;html=1;endArrow=ERmany;startArrow=ERmany;rounded=0;entryX=0.888;entryY=1.1;entryDx=0;entryDy=0;exitX=0.5;exitY=0;exitDx=0;exitDy=0;shadow=1;entryPerimeter=0;" parent="1" source="mSlNE_2HwevDB6tWxFrl-49" target="mSlNE_2HwevDB6tWxFrl-2" edge="1">
          <mxGeometry width="100" height="100" relative="1" as="geometry">
            <mxPoint x="130" y="220" as="sourcePoint" />
            <mxPoint x="185" y="120" as="targetPoint" />
          </mxGeometry>
        </mxCell>
        <mxCell id="mSlNE_2HwevDB6tWxFrl-34" value="" style="edgeStyle=orthogonalEdgeStyle;fontSize=12;html=1;endArrow=ERmany;startArrow=ERone;rounded=0;entryX=0.5;entryY=1;entryDx=0;entryDy=0;shadow=1;endFill=0;startFill=0;" parent="1" source="mSlNE_2HwevDB6tWxFrl-3" target="mSlNE_2HwevDB6tWxFrl-35" edge="1">
          <mxGeometry width="100" height="100" relative="1" as="geometry">
            <mxPoint x="120" y="210" as="sourcePoint" />
            <mxPoint x="65" y="50" as="targetPoint" />
          </mxGeometry>
        </mxCell>
        <mxCell id="mSlNE_2HwevDB6tWxFrl-35" value="Relación&amp;nbsp;" style="shape=rhombus;perimeter=rhombusPerimeter;whiteSpace=wrap;html=1;align=center;shadow=1;" parent="1" vertex="1">
          <mxGeometry x="-45" y="37.5" width="90" height="40" as="geometry" />
        </mxCell>
        <mxCell id="mSlNE_2HwevDB6tWxFrl-36" value="" style="edgeStyle=orthogonalEdgeStyle;fontSize=12;html=1;endArrow=ERoneToMany;rounded=0;entryX=1;entryY=0.5;entryDx=0;entryDy=0;exitX=0;exitY=0.5;exitDx=0;exitDy=0;shadow=1;" parent="1" source="mSlNE_2HwevDB6tWxFrl-1" target="mSlNE_2HwevDB6tWxFrl-37" edge="1">
          <mxGeometry width="100" height="100" relative="1" as="geometry">
            <mxPoint x="290" y="230" as="sourcePoint" />
            <mxPoint x="130" y="200" as="targetPoint" />
          </mxGeometry>
        </mxCell>
        <mxCell id="mSlNE_2HwevDB6tWxFrl-37" value="Tiene" style="shape=rhombus;perimeter=rhombusPerimeter;whiteSpace=wrap;html=1;align=center;shadow=1;" parent="1" vertex="1">
          <mxGeometry x="100" y="55" width="50" height="30" as="geometry" />
        </mxCell>
        <mxCell id="mSlNE_2HwevDB6tWxFrl-39" value="" style="edgeStyle=orthogonalEdgeStyle;fontSize=12;html=1;endArrow=ERoneToMany;rounded=0;entryX=0.5;entryY=0;entryDx=0;entryDy=0;exitX=0.5;exitY=1;exitDx=0;exitDy=0;shadow=1;" parent="1" source="mSlNE_2HwevDB6tWxFrl-3" target="mSlNE_2HwevDB6tWxFrl-38" edge="1">
          <mxGeometry width="100" height="100" relative="1" as="geometry">
            <mxPoint x="80" y="210" as="sourcePoint" />
            <mxPoint x="105" y="370" as="targetPoint" />
          </mxGeometry>
        </mxCell>
        <mxCell id="mSlNE_2HwevDB6tWxFrl-38" value="Relación&amp;nbsp;" style="shape=rhombus;perimeter=rhombusPerimeter;whiteSpace=wrap;html=1;align=center;shadow=1;" parent="1" vertex="1">
          <mxGeometry x="-75" y="240" width="90" height="40" as="geometry" />
        </mxCell>
        <mxCell id="mSlNE_2HwevDB6tWxFrl-41" value="" style="edgeStyle=orthogonalEdgeStyle;fontSize=12;html=1;endArrow=ERoneToMany;rounded=0;entryX=0.5;entryY=1;entryDx=0;entryDy=0;shadow=1;" parent="1" source="mSlNE_2HwevDB6tWxFrl-11" target="mSlNE_2HwevDB6tWxFrl-40" edge="1">
          <mxGeometry width="100" height="100" relative="1" as="geometry">
            <mxPoint x="70" y="565" as="sourcePoint" />
            <mxPoint x="105" y="410" as="targetPoint" />
          </mxGeometry>
        </mxCell>
        <mxCell id="mSlNE_2HwevDB6tWxFrl-40" value="Relación&amp;nbsp;" style="shape=rhombus;perimeter=rhombusPerimeter;whiteSpace=wrap;html=1;align=center;shadow=1;" parent="1" vertex="1">
          <mxGeometry x="-115" y="470" width="90" height="40" as="geometry" />
        </mxCell>
        <mxCell id="mSlNE_2HwevDB6tWxFrl-42" value="" style="edgeStyle=orthogonalEdgeStyle;fontSize=12;html=1;endArrow=ERoneToMany;rounded=0;exitX=0.5;exitY=1;exitDx=0;exitDy=0;shadow=1;" parent="1" source="mSlNE_2HwevDB6tWxFrl-11" target="mSlNE_2HwevDB6tWxFrl-43" edge="1">
          <mxGeometry width="100" height="100" relative="1" as="geometry">
            <mxPoint x="70" y="650" as="sourcePoint" />
            <mxPoint x="120" y="870" as="targetPoint" />
          </mxGeometry>
        </mxCell>
        <mxCell id="mSlNE_2HwevDB6tWxFrl-43" value="Relación&amp;nbsp;" style="shape=rhombus;perimeter=rhombusPerimeter;whiteSpace=wrap;html=1;align=center;shadow=1;" parent="1" vertex="1">
          <mxGeometry x="-10" y="690" width="90" height="40" as="geometry" />
        </mxCell>
        <mxCell id="mSlNE_2HwevDB6tWxFrl-45" value="" style="edgeStyle=orthogonalEdgeStyle;fontSize=12;html=1;endArrow=ERoneToMany;rounded=0;entryX=0.5;entryY=0;entryDx=0;entryDy=0;shadow=1;" parent="1" source="mSlNE_2HwevDB6tWxFrl-4" target="mSlNE_2HwevDB6tWxFrl-44" edge="1">
          <mxGeometry width="100" height="100" relative="1" as="geometry">
            <mxPoint x="130" y="390" as="sourcePoint" />
            <mxPoint x="270" y="595" as="targetPoint" />
          </mxGeometry>
        </mxCell>
        <mxCell id="mSlNE_2HwevDB6tWxFrl-44" value="Requiere&amp;nbsp;" style="shape=rhombus;perimeter=rhombusPerimeter;whiteSpace=wrap;html=1;align=center;shadow=1;" parent="1" vertex="1">
          <mxGeometry x="45" y="490" width="80" height="30" as="geometry" />
        </mxCell>
        <mxCell id="mSlNE_2HwevDB6tWxFrl-47" value="" style="edgeStyle=orthogonalEdgeStyle;fontSize=12;html=1;endArrow=ERoneToMany;rounded=0;exitX=0;exitY=0.5;exitDx=0;exitDy=0;shadow=1;" parent="1" source="mSlNE_2HwevDB6tWxFrl-7" target="mSlNE_2HwevDB6tWxFrl-46" edge="1">
          <mxGeometry width="100" height="100" relative="1" as="geometry">
            <mxPoint x="490" y="490" as="sourcePoint" />
            <mxPoint x="350" y="595" as="targetPoint" />
          </mxGeometry>
        </mxCell>
        <mxCell id="mSlNE_2HwevDB6tWxFrl-46" value="Tiene" style="shape=rhombus;perimeter=rhombusPerimeter;whiteSpace=wrap;html=1;align=center;shadow=1;" parent="1" vertex="1">
          <mxGeometry x="385" y="495" width="50" height="30" as="geometry" />
        </mxCell>
        <mxCell id="mSlNE_2HwevDB6tWxFrl-48" value="" style="edgeStyle=orthogonalEdgeStyle;fontSize=12;html=1;endArrow=ERmany;startArrow=ERmany;rounded=0;entryX=0.5;entryY=1;entryDx=0;entryDy=0;shadow=1;exitX=0;exitY=0.5;exitDx=0;exitDy=0;" parent="1" source="mSlNE_2HwevDB6tWxFrl-52" target="mSlNE_2HwevDB6tWxFrl-49" edge="1">
          <mxGeometry width="100" height="100" relative="1" as="geometry">
            <mxPoint x="600" y="290" as="sourcePoint" />
            <mxPoint x="250" y="350" as="targetPoint" />
            <Array as="points">
              <mxPoint x="590" y="335" />
              <mxPoint x="590" y="470" />
              <mxPoint x="195" y="470" />
            </Array>
          </mxGeometry>
        </mxCell>
        <mxCell id="mSlNE_2HwevDB6tWxFrl-49" value="Relación&amp;nbsp;" style="shape=rhombus;perimeter=rhombusPerimeter;whiteSpace=wrap;html=1;align=center;shadow=1;" parent="1" vertex="1">
          <mxGeometry x="150" y="410" width="90" height="40" as="geometry" />
        </mxCell>
        <mxCell id="mSlNE_2HwevDB6tWxFrl-50" value="" style="edgeStyle=orthogonalEdgeStyle;fontSize=12;html=1;endArrow=ERoneToMany;rounded=0;entryX=0.5;entryY=1;entryDx=0;entryDy=0;shadow=1;exitX=1;exitY=0.5;exitDx=0;exitDy=0;" parent="1" source="mSlNE_2HwevDB6tWxFrl-12" target="mSlNE_2HwevDB6tWxFrl-51" edge="1">
          <mxGeometry width="100" height="100" relative="1" as="geometry">
            <mxPoint x="450" y="300" as="sourcePoint" />
            <mxPoint x="590" y="190" as="targetPoint" />
            <Array as="points">
              <mxPoint x="590" y="305" />
            </Array>
          </mxGeometry>
        </mxCell>
        <mxCell id="mSlNE_2HwevDB6tWxFrl-51" value="Responsable de" style="shape=rhombus;perimeter=rhombusPerimeter;whiteSpace=wrap;html=1;align=center;shadow=1;" parent="1" vertex="1">
          <mxGeometry x="530" y="140" width="120" height="50" as="geometry" />
        </mxCell>
        <mxCell id="mSlNE_2HwevDB6tWxFrl-52" value="Pedido" style="shape=rhombus;perimeter=rhombusPerimeter;whiteSpace=wrap;html=1;align=center;shadow=1;" parent="1" vertex="1">
          <mxGeometry x="630" y="320" width="60" height="30" as="geometry" />
        </mxCell>
        <mxCell id="mSlNE_2HwevDB6tWxFrl-54" value="" style="edgeStyle=orthogonalEdgeStyle;fontSize=12;html=1;endArrow=ERoneToMany;rounded=0;exitX=0;exitY=1;exitDx=0;exitDy=0;shadow=1;" parent="1" source="mSlNE_2HwevDB6tWxFrl-1" target="mSlNE_2HwevDB6tWxFrl-55" edge="1">
          <mxGeometry width="100" height="100" relative="1" as="geometry">
            <mxPoint x="345" y="80" as="sourcePoint" />
            <mxPoint x="250" y="310" as="targetPoint" />
          </mxGeometry>
        </mxCell>
        <mxCell id="mSlNE_2HwevDB6tWxFrl-55" value="Compra a" style="shape=rhombus;perimeter=rhombusPerimeter;whiteSpace=wrap;html=1;align=center;shadow=1;" parent="1" vertex="1">
          <mxGeometry x="105" y="154" width="80" height="30" as="geometry" />
        </mxCell>
        <mxCell id="mSlNE_2HwevDB6tWxFrl-56" value="" style="edgeStyle=orthogonalEdgeStyle;fontSize=12;html=1;endArrow=ERoneToMany;rounded=0;entryX=0.5;entryY=0;entryDx=0;entryDy=0;exitX=0.5;exitY=1;exitDx=0;exitDy=0;shadow=1;" parent="1" source="mSlNE_2HwevDB6tWxFrl-1" target="mSlNE_2HwevDB6tWxFrl-57" edge="1">
          <mxGeometry width="100" height="100" relative="1" as="geometry">
            <mxPoint x="370" y="80" as="sourcePoint" />
            <mxPoint x="395" y="310" as="targetPoint" />
          </mxGeometry>
        </mxCell>
        <mxCell id="mSlNE_2HwevDB6tWxFrl-57" value="Tiene&amp;nbsp;" style="shape=rhombus;perimeter=rhombusPerimeter;whiteSpace=wrap;html=1;align=center;shadow=1;" parent="1" vertex="1">
          <mxGeometry x="350" y="155" width="60" height="30" as="geometry" />
        </mxCell>
        <mxCell id="mSlNE_2HwevDB6tWxFrl-59" value="" style="edgeStyle=orthogonalEdgeStyle;fontSize=12;html=1;endArrow=ERoneToMany;rounded=0;entryX=0;entryY=0.5;entryDx=0;entryDy=0;exitX=1;exitY=0.5;exitDx=0;exitDy=0;shadow=1;" parent="1" source="mSlNE_2HwevDB6tWxFrl-1" target="mSlNE_2HwevDB6tWxFrl-58" edge="1">
          <mxGeometry width="100" height="100" relative="1" as="geometry">
            <mxPoint x="420" y="60" as="sourcePoint" />
            <mxPoint x="600" y="50" as="targetPoint" />
          </mxGeometry>
        </mxCell>
        <mxCell id="mSlNE_2HwevDB6tWxFrl-58" value="Tiene" style="shape=rhombus;perimeter=rhombusPerimeter;whiteSpace=wrap;html=1;align=center;shadow=1;" parent="1" vertex="1">
          <mxGeometry x="460" y="55" width="50" height="30" as="geometry" />
        </mxCell>
        <mxCell id="mSlNE_2HwevDB6tWxFrl-61" value="" style="edgeStyle=orthogonalEdgeStyle;fontSize=12;html=1;endArrow=ERoneToMany;rounded=0;entryX=0.5;entryY=0;entryDx=0;entryDy=0;exitX=0.863;exitY=1.1;exitDx=0;exitDy=0;exitPerimeter=0;shadow=1;" parent="1" source="mSlNE_2HwevDB6tWxFrl-6" target="mSlNE_2HwevDB6tWxFrl-52" edge="1">
          <mxGeometry width="100" height="100" relative="1" as="geometry">
            <mxPoint x="370" y="340" as="sourcePoint" />
            <mxPoint x="470" y="240" as="targetPoint" />
          </mxGeometry>
        </mxCell>
        <mxCell id="mSlNE_2HwevDB6tWxFrl-63" value="ID" style="ellipse;whiteSpace=wrap;html=1;align=center;fontStyle=4;shadow=1;" parent="1" vertex="1">
          <mxGeometry x="-125" y="-17.5" width="40" height="25" as="geometry" />
        </mxCell>
        <mxCell id="mSlNE_2HwevDB6tWxFrl-65" value="Nombre" style="ellipse;whiteSpace=wrap;html=1;align=center;shadow=1;" parent="1" vertex="1">
          <mxGeometry x="420" y="155" width="60" height="30" as="geometry" />
        </mxCell>
        <mxCell id="mSlNE_2HwevDB6tWxFrl-66" value="ID" style="ellipse;whiteSpace=wrap;html=1;align=center;fontStyle=4;shadow=1;" parent="1" vertex="1">
          <mxGeometry x="5" y="99" width="40" height="25" as="geometry" />
        </mxCell>
        <mxCell id="mSlNE_2HwevDB6tWxFrl-67" value="ID" style="ellipse;whiteSpace=wrap;html=1;align=center;fontStyle=4;shadow=1;" parent="1" vertex="1">
          <mxGeometry x="-20" y="300" width="40" height="25" as="geometry" />
        </mxCell>
        <mxCell id="mSlNE_2HwevDB6tWxFrl-68" value="ID" style="ellipse;whiteSpace=wrap;html=1;align=center;fontStyle=4;shadow=1;" parent="1" vertex="1">
          <mxGeometry x="-165" y="550" width="40" height="25" as="geometry" />
        </mxCell>
        <mxCell id="mSlNE_2HwevDB6tWxFrl-69" value="ID" style="ellipse;whiteSpace=wrap;html=1;align=center;fontStyle=4;shadow=1;" parent="1" vertex="1">
          <mxGeometry x="-80" y="755" width="40" height="25" as="geometry" />
        </mxCell>
        <mxCell id="mSlNE_2HwevDB6tWxFrl-70" value="ID" style="ellipse;whiteSpace=wrap;html=1;align=center;fontStyle=4;direction=south;shadow=1;" parent="1" vertex="1">
          <mxGeometry x="135" y="510" width="40" height="30" as="geometry" />
        </mxCell>
        <mxCell id="mSlNE_2HwevDB6tWxFrl-71" value="ID" style="ellipse;whiteSpace=wrap;html=1;align=center;fontStyle=4;shadow=1;" parent="1" vertex="1">
          <mxGeometry x="570" y="590" width="40" height="25" as="geometry" />
        </mxCell>
        <mxCell id="mSlNE_2HwevDB6tWxFrl-72" value="ID" style="ellipse;whiteSpace=wrap;html=1;align=center;fontStyle=4;shadow=1;" parent="1" vertex="1">
          <mxGeometry x="600" y="-15" width="40" height="25" as="geometry" />
        </mxCell>
        <mxCell id="mSlNE_2HwevDB6tWxFrl-73" value="ID" style="ellipse;whiteSpace=wrap;html=1;align=center;fontStyle=4;shadow=1;" parent="1" vertex="1">
          <mxGeometry x="460" y="190" width="40" height="25" as="geometry" />
        </mxCell>
        <mxCell id="mSlNE_2HwevDB6tWxFrl-74" value="ID" style="ellipse;whiteSpace=wrap;html=1;align=center;fontStyle=4;shadow=1;" parent="1" vertex="1">
          <mxGeometry x="100" y="192.5" width="40" height="25" as="geometry" />
        </mxCell>
        <mxCell id="mSlNE_2HwevDB6tWxFrl-75" value="ID" style="ellipse;whiteSpace=wrap;html=1;align=center;fontStyle=4;shadow=1;" parent="1" vertex="1">
          <mxGeometry x="385" y="-42.5" width="40" height="25" as="geometry" />
        </mxCell>
        <mxCell id="mSlNE_2HwevDB6tWxFrl-76" value="Cédula&amp;nbsp;" style="ellipse;whiteSpace=wrap;html=1;align=center;shadow=1;" parent="1" vertex="1">
          <mxGeometry x="360" y="410" width="60" height="30" as="geometry" />
        </mxCell>
        <mxCell id="mSlNE_2HwevDB6tWxFrl-77" value="Teléfono&amp;nbsp;" style="ellipse;whiteSpace=wrap;html=1;align=center;shadow=1;" parent="1" vertex="1">
          <mxGeometry x="485" y="225" width="60" height="30" as="geometry" />
        </mxCell>
        <mxCell id="mSlNE_2HwevDB6tWxFrl-78" value="Correo" style="ellipse;whiteSpace=wrap;html=1;align=center;shadow=1;" parent="1" vertex="1">
          <mxGeometry x="420" y="400" width="60" height="30" as="geometry" />
        </mxCell>
        <mxCell id="mSlNE_2HwevDB6tWxFrl-79" value="fechaNacimiento" style="ellipse;whiteSpace=wrap;html=1;align=center;shadow=1;" parent="1" vertex="1">
          <mxGeometry x="460" y="370" width="110" height="30" as="geometry" />
        </mxCell>
        <mxCell id="mSlNE_2HwevDB6tWxFrl-80" value="Edad" style="ellipse;whiteSpace=wrap;html=1;align=center;dashed=1;shadow=1;" parent="1" vertex="1">
          <mxGeometry x="390" y="185" width="50" height="30" as="geometry" />
        </mxCell>
        <mxCell id="mSlNE_2HwevDB6tWxFrl-96" value="Nombre" style="ellipse;whiteSpace=wrap;html=1;align=center;shadow=1;" parent="1" vertex="1">
          <mxGeometry x="40" y="210" width="60" height="30" as="geometry" />
        </mxCell>
        <mxCell id="mSlNE_2HwevDB6tWxFrl-101" value="Teléfono&amp;nbsp;" style="ellipse;whiteSpace=wrap;html=1;align=center;shadow=1;" parent="1" vertex="1">
          <mxGeometry x="385" y="100" width="60" height="30" as="geometry" />
        </mxCell>
        <mxCell id="mSlNE_2HwevDB6tWxFrl-103" value="NIT" style="ellipse;whiteSpace=wrap;html=1;align=center;shadow=1;" parent="1" vertex="1">
          <mxGeometry x="150" y="192.5" width="40" height="30" as="geometry" />
        </mxCell>
        <mxCell id="mSlNE_2HwevDB6tWxFrl-105" value="Correo" style="ellipse;whiteSpace=wrap;html=1;align=center;shadow=1;direction=south;" parent="1" vertex="1">
          <mxGeometry x="100" y="380" width="60" height="30" as="geometry" />
        </mxCell>
        <mxCell id="mSlNE_2HwevDB6tWxFrl-107" value="Dirección&amp;nbsp;" style="ellipse;whiteSpace=wrap;html=1;align=center;shadow=1;" parent="1" vertex="1">
          <mxGeometry x="420" y="-17.5" width="80" height="30" as="geometry" />
        </mxCell>
        <mxCell id="mSlNE_2HwevDB6tWxFrl-109" value="Dirección&amp;nbsp;" style="ellipse;whiteSpace=wrap;html=1;align=center;shadow=1;" parent="1" vertex="1">
          <mxGeometry x="50" y="325" width="80" height="30" as="geometry" />
        </mxCell>
        <mxCell id="mSlNE_2HwevDB6tWxFrl-111" value="NIT" style="ellipse;whiteSpace=wrap;html=1;align=center;shadow=1;" parent="1" vertex="1">
          <mxGeometry x="260" y="-45" width="40" height="30" as="geometry" />
        </mxCell>
        <mxCell id="mSlNE_2HwevDB6tWxFrl-113" value="Nombre" style="ellipse;whiteSpace=wrap;html=1;align=center;shadow=1;" parent="1" vertex="1">
          <mxGeometry x="280" y="-90" width="60" height="30" as="geometry" />
        </mxCell>
        <mxCell id="mSlNE_2HwevDB6tWxFrl-115" value="Correo" style="ellipse;whiteSpace=wrap;html=1;align=center;shadow=1;" parent="1" vertex="1">
          <mxGeometry x="425" y="20" width="60" height="30" as="geometry" />
        </mxCell>
        <mxCell id="mSlNE_2HwevDB6tWxFrl-118" value="Teléfono&amp;nbsp;" style="ellipse;whiteSpace=wrap;html=1;align=center;shadow=1;" parent="1" vertex="1">
          <mxGeometry y="270" width="60" height="30" as="geometry" />
        </mxCell>
        <mxCell id="mSlNE_2HwevDB6tWxFrl-122" value="Categoría&amp;nbsp;" style="ellipse;whiteSpace=wrap;html=1;align=center;shadow=1;" parent="1" vertex="1">
          <mxGeometry x="610" y="-55" width="80" height="30" as="geometry" />
        </mxCell>
        <mxCell id="mSlNE_2HwevDB6tWxFrl-124" value="Item" style="ellipse;whiteSpace=wrap;html=1;align=center;shadow=1;" parent="1" vertex="1">
          <mxGeometry x="680" y="7.5" width="50" height="30" as="geometry" />
        </mxCell>
        <mxCell id="mSlNE_2HwevDB6tWxFrl-126" value="CantidadItem" style="ellipse;whiteSpace=wrap;html=1;align=center;shadow=1;" parent="1" vertex="1">
          <mxGeometry x="713" y="37.5" width="90" height="30" as="geometry" />
        </mxCell>
        <mxCell id="mSlNE_2HwevDB6tWxFrl-128" value="Máximo&amp;nbsp;" style="ellipse;whiteSpace=wrap;html=1;align=center;shadow=1;" parent="1" vertex="1">
          <mxGeometry x="750" y="85" width="70" height="30" as="geometry" />
        </mxCell>
        <mxCell id="mSlNE_2HwevDB6tWxFrl-130" value="Mínimo&amp;nbsp;" style="ellipse;whiteSpace=wrap;html=1;align=center;shadow=1;" parent="1" vertex="1">
          <mxGeometry x="740" y="124" width="70" height="30" as="geometry" />
        </mxCell>
        <mxCell id="mSlNE_2HwevDB6tWxFrl-133" value="Estado" style="ellipse;whiteSpace=wrap;html=1;align=center;shadow=1;" parent="1" vertex="1">
          <mxGeometry x="495" y="620" width="60" height="30" as="geometry" />
        </mxCell>
        <mxCell id="mSlNE_2HwevDB6tWxFrl-135" value="Precio" style="ellipse;whiteSpace=wrap;html=1;align=center;shadow=1;" parent="1" vertex="1">
          <mxGeometry x="380" y="570" width="60" height="30" as="geometry" />
        </mxCell>
        <mxCell id="mSlNE_2HwevDB6tWxFrl-137" value="Descripción&amp;nbsp;" style="ellipse;whiteSpace=wrap;html=1;align=center;shadow=1;" parent="1" vertex="1">
          <mxGeometry x="400" y="610" width="90" height="30" as="geometry" />
        </mxCell>
        <mxCell id="mSlNE_2HwevDB6tWxFrl-142" value="Concepto" style="ellipse;whiteSpace=wrap;html=1;align=center;shadow=1;" parent="1" vertex="1">
          <mxGeometry x="315" y="630" width="70" height="30" as="geometry" />
        </mxCell>
        <mxCell id="mSlNE_2HwevDB6tWxFrl-144" value="Titular&amp;nbsp;" style="ellipse;whiteSpace=wrap;html=1;align=center;shadow=1;" parent="1" vertex="1">
          <mxGeometry x="175" y="538" width="50" height="30" as="geometry" />
        </mxCell>
        <mxCell id="mSlNE_2HwevDB6tWxFrl-146" value="IDTitular" style="ellipse;whiteSpace=wrap;html=1;align=center;fontStyle=4;direction=south;shadow=1;" parent="1" vertex="1">
          <mxGeometry x="160" y="620" width="70" height="30" as="geometry" />
        </mxCell>
        <mxCell id="mSlNE_2HwevDB6tWxFrl-147" value="Nombre" style="ellipse;whiteSpace=wrap;html=1;align=center;shadow=1;" parent="1" vertex="1">
          <mxGeometry x="35" y="600" width="60" height="30" as="geometry" />
        </mxCell>
        <mxCell id="mSlNE_2HwevDB6tWxFrl-148" value="Teléfono&amp;nbsp;" style="ellipse;whiteSpace=wrap;html=1;align=center;shadow=1;" parent="1" vertex="1">
          <mxGeometry x="-5" y="510" width="60" height="30" as="geometry" />
        </mxCell>
        <mxCell id="mSlNE_2HwevDB6tWxFrl-149" value="Cédula&amp;nbsp;" style="ellipse;whiteSpace=wrap;html=1;align=center;shadow=1;" parent="1" vertex="1">
          <mxGeometry x="-170" y="490" width="60" height="30" as="geometry" />
        </mxCell>
        <mxCell id="mSlNE_2HwevDB6tWxFrl-150" value="Correo" style="ellipse;whiteSpace=wrap;html=1;align=center;shadow=1;" parent="1" vertex="1">
          <mxGeometry x="65" y="560" width="60" height="30" as="geometry" />
        </mxCell>
        <mxCell id="mSlNE_2HwevDB6tWxFrl-151" value="fechaNacimiento" style="ellipse;whiteSpace=wrap;html=1;align=center;shadow=1;" parent="1" vertex="1">
          <mxGeometry x="-220" y="630" width="110" height="30" as="geometry" />
        </mxCell>
        <mxCell id="mSlNE_2HwevDB6tWxFrl-152" value="Edad" style="ellipse;whiteSpace=wrap;html=1;align=center;dashed=1;shadow=1;" parent="1" vertex="1">
          <mxGeometry x="-85" y="670" width="50" height="30" as="geometry" />
        </mxCell>
        <mxCell id="mSlNE_2HwevDB6tWxFrl-159" value="Total" style="ellipse;whiteSpace=wrap;html=1;align=center;dashed=1;shadow=1;" parent="1" vertex="1">
          <mxGeometry x="325" y="560" width="50" height="30" as="geometry" />
        </mxCell>
        <mxCell id="mSlNE_2HwevDB6tWxFrl-161" value="Cantidad" style="ellipse;whiteSpace=wrap;html=1;align=center;shadow=1;" parent="1" vertex="1">
          <mxGeometry x="200" y="690" width="70" height="30" as="geometry" />
        </mxCell>
        <mxCell id="mSlNE_2HwevDB6tWxFrl-173" style="edgeStyle=orthogonalEdgeStyle;rounded=0;orthogonalLoop=1;jettySize=auto;html=1;exitX=0.25;exitY=1;exitDx=0;exitDy=0;entryX=0.5;entryY=0;entryDx=0;entryDy=0;shadow=1;" parent="1" source="mSlNE_2HwevDB6tWxFrl-163" target="mSlNE_2HwevDB6tWxFrl-167" edge="1">
          <mxGeometry relative="1" as="geometry" />
        </mxCell>
        <mxCell id="mSlNE_2HwevDB6tWxFrl-174" style="edgeStyle=orthogonalEdgeStyle;rounded=0;orthogonalLoop=1;jettySize=auto;html=1;exitX=0.75;exitY=1;exitDx=0;exitDy=0;entryX=0.5;entryY=0;entryDx=0;entryDy=0;shadow=1;" parent="1" source="mSlNE_2HwevDB6tWxFrl-163" target="mSlNE_2HwevDB6tWxFrl-168" edge="1">
          <mxGeometry relative="1" as="geometry" />
        </mxCell>
        <mxCell id="mSlNE_2HwevDB6tWxFrl-175" style="edgeStyle=orthogonalEdgeStyle;rounded=0;orthogonalLoop=1;jettySize=auto;html=1;exitX=0;exitY=0;exitDx=0;exitDy=0;entryX=0.5;entryY=1;entryDx=0;entryDy=0;shadow=1;" parent="1" source="mSlNE_2HwevDB6tWxFrl-163" target="mSlNE_2HwevDB6tWxFrl-169" edge="1">
          <mxGeometry relative="1" as="geometry" />
        </mxCell>
        <mxCell id="mSlNE_2HwevDB6tWxFrl-176" style="edgeStyle=orthogonalEdgeStyle;rounded=0;orthogonalLoop=1;jettySize=auto;html=1;exitX=0.25;exitY=0;exitDx=0;exitDy=0;entryX=0.5;entryY=1;entryDx=0;entryDy=0;shadow=1;" parent="1" source="mSlNE_2HwevDB6tWxFrl-163" target="mSlNE_2HwevDB6tWxFrl-172" edge="1">
          <mxGeometry relative="1" as="geometry" />
        </mxCell>
        <mxCell id="mSlNE_2HwevDB6tWxFrl-177" style="edgeStyle=orthogonalEdgeStyle;rounded=0;orthogonalLoop=1;jettySize=auto;html=1;exitX=0.5;exitY=0;exitDx=0;exitDy=0;entryX=0.5;entryY=1;entryDx=0;entryDy=0;shadow=1;" parent="1" source="mSlNE_2HwevDB6tWxFrl-163" target="mSlNE_2HwevDB6tWxFrl-171" edge="1">
          <mxGeometry relative="1" as="geometry" />
        </mxCell>
        <mxCell id="mSlNE_2HwevDB6tWxFrl-178" style="edgeStyle=orthogonalEdgeStyle;rounded=0;orthogonalLoop=1;jettySize=auto;html=1;exitX=1;exitY=0;exitDx=0;exitDy=0;entryX=0;entryY=0.5;entryDx=0;entryDy=0;shadow=1;" parent="1" source="mSlNE_2HwevDB6tWxFrl-163" target="mSlNE_2HwevDB6tWxFrl-170" edge="1">
          <mxGeometry relative="1" as="geometry">
            <Array as="points">
              <mxPoint x="193" y="-145" />
            </Array>
          </mxGeometry>
        </mxCell>
        <mxCell id="1jEjLnXPpBsbDHWZ4coB-60" style="edgeStyle=orthogonalEdgeStyle;rounded=0;orthogonalLoop=1;jettySize=auto;html=1;exitX=0;exitY=0.25;exitDx=0;exitDy=0;entryX=1;entryY=0.5;entryDx=0;entryDy=0;" parent="1" source="mSlNE_2HwevDB6tWxFrl-163" target="1jEjLnXPpBsbDHWZ4coB-61" edge="1">
          <mxGeometry relative="1" as="geometry">
            <mxPoint x="70" y="-160" as="targetPoint" />
          </mxGeometry>
        </mxCell>
        <mxCell id="mSlNE_2HwevDB6tWxFrl-163" value="Servicios públicos&amp;nbsp;" style="whiteSpace=wrap;html=1;align=center;shadow=1;" parent="1" vertex="1">
          <mxGeometry x="117.5" y="-140" width="75" height="30" as="geometry" />
        </mxCell>
        <mxCell id="mSlNE_2HwevDB6tWxFrl-164" value="" style="edgeStyle=orthogonalEdgeStyle;fontSize=12;html=1;endArrow=ERoneToMany;rounded=0;shadow=1;exitX=0.5;exitY=1;exitDx=0;exitDy=0;entryX=0.5;entryY=0;entryDx=0;entryDy=0;" parent="1" source="mSlNE_2HwevDB6tWxFrl-163" target="mSlNE_2HwevDB6tWxFrl-166" edge="1">
          <mxGeometry width="100" height="100" relative="1" as="geometry">
            <mxPoint x="268.75" y="46.25" as="sourcePoint" />
            <mxPoint x="200" y="-80" as="targetPoint" />
          </mxGeometry>
        </mxCell>
        <mxCell id="mSlNE_2HwevDB6tWxFrl-165" value="" style="edgeStyle=orthogonalEdgeStyle;fontSize=12;html=1;endArrow=ERoneToMany;rounded=0;entryX=0.5;entryY=1;entryDx=0;entryDy=0;shadow=1;exitX=0;exitY=0;exitDx=0;exitDy=0;" parent="1" source="mSlNE_2HwevDB6tWxFrl-1" target="mSlNE_2HwevDB6tWxFrl-166" edge="1">
          <mxGeometry width="100" height="100" relative="1" as="geometry">
            <mxPoint x="280" y="55" as="sourcePoint" />
            <mxPoint x="151" y="-70" as="targetPoint" />
            <Array as="points">
              <mxPoint x="155" y="55" />
            </Array>
          </mxGeometry>
        </mxCell>
        <mxCell id="mSlNE_2HwevDB6tWxFrl-166" value="Recibo" style="shape=rhombus;perimeter=rhombusPerimeter;whiteSpace=wrap;html=1;align=center;shadow=1;" parent="1" vertex="1">
          <mxGeometry x="110" y="-32.5" width="90" height="30" as="geometry" />
        </mxCell>
        <mxCell id="mSlNE_2HwevDB6tWxFrl-167" value="ID" style="ellipse;whiteSpace=wrap;html=1;align=center;fontStyle=4;shadow=1;" parent="1" vertex="1">
          <mxGeometry x="110" y="-80" width="40" height="25" as="geometry" />
        </mxCell>
        <mxCell id="mSlNE_2HwevDB6tWxFrl-168" value="NIT" style="ellipse;whiteSpace=wrap;html=1;align=center;shadow=1;" parent="1" vertex="1">
          <mxGeometry x="160" y="-80" width="40" height="30" as="geometry" />
        </mxCell>
        <mxCell id="mSlNE_2HwevDB6tWxFrl-169" value="Nombre" style="ellipse;whiteSpace=wrap;html=1;align=center;shadow=1;" parent="1" vertex="1">
          <mxGeometry x="80" y="-210" width="60" height="30" as="geometry" />
        </mxCell>
        <mxCell id="mSlNE_2HwevDB6tWxFrl-170" value="Teléfono&amp;nbsp;" style="ellipse;whiteSpace=wrap;html=1;align=center;shadow=1;" parent="1" vertex="1">
          <mxGeometry x="235" y="-160" width="60" height="30" as="geometry" />
        </mxCell>
        <mxCell id="mSlNE_2HwevDB6tWxFrl-171" value="Dirección&amp;nbsp;" style="ellipse;whiteSpace=wrap;html=1;align=center;shadow=1;" parent="1" vertex="1">
          <mxGeometry x="195" y="-220" width="80" height="30" as="geometry" />
        </mxCell>
        <mxCell id="mSlNE_2HwevDB6tWxFrl-172" value="Correo" style="ellipse;whiteSpace=wrap;html=1;align=center;shadow=1;" parent="1" vertex="1">
          <mxGeometry x="135" y="-230" width="60" height="30" as="geometry" />
        </mxCell>
        <mxCell id="mSlNE_2HwevDB6tWxFrl-179" value="Categoría" style="ellipse;whiteSpace=wrap;html=1;align=center;shadow=1;" parent="1" vertex="1">
          <mxGeometry x="175" y="222.5" width="60" height="30" as="geometry" />
        </mxCell>
        <mxCell id="mSlNE_2HwevDB6tWxFrl-181" value="Número&amp;nbsp;" style="ellipse;whiteSpace=wrap;html=1;align=center;shadow=1;" parent="1" vertex="1">
          <mxGeometry x="-135" y="124" width="60" height="30" as="geometry" />
        </mxCell>
        <mxCell id="1jEjLnXPpBsbDHWZ4coB-13" style="edgeStyle=orthogonalEdgeStyle;rounded=0;orthogonalLoop=1;jettySize=auto;html=1;exitX=0;exitY=0.5;exitDx=0;exitDy=0;shadow=1;" parent="1" source="1jEjLnXPpBsbDHWZ4coB-3" target="1jEjLnXPpBsbDHWZ4coB-12" edge="1">
          <mxGeometry relative="1" as="geometry" />
        </mxCell>
        <mxCell id="1jEjLnXPpBsbDHWZ4coB-15" style="edgeStyle=orthogonalEdgeStyle;rounded=0;orthogonalLoop=1;jettySize=auto;html=1;exitX=0;exitY=0;exitDx=0;exitDy=0;shadow=1;" parent="1" source="1jEjLnXPpBsbDHWZ4coB-3" target="1jEjLnXPpBsbDHWZ4coB-14" edge="1">
          <mxGeometry relative="1" as="geometry" />
        </mxCell>
        <mxCell id="1jEjLnXPpBsbDHWZ4coB-25" style="edgeStyle=orthogonalEdgeStyle;rounded=0;orthogonalLoop=1;jettySize=auto;html=1;exitX=0.75;exitY=0;exitDx=0;exitDy=0;entryX=0.5;entryY=1;entryDx=0;entryDy=0;shadow=1;" parent="1" source="1jEjLnXPpBsbDHWZ4coB-3" target="1jEjLnXPpBsbDHWZ4coB-24" edge="1">
          <mxGeometry relative="1" as="geometry" />
        </mxCell>
        <mxCell id="1jEjLnXPpBsbDHWZ4coB-28" style="edgeStyle=orthogonalEdgeStyle;rounded=0;orthogonalLoop=1;jettySize=auto;html=1;exitX=0.75;exitY=1;exitDx=0;exitDy=0;entryX=0.5;entryY=0;entryDx=0;entryDy=0;shadow=1;" parent="1" source="1jEjLnXPpBsbDHWZ4coB-3" target="1jEjLnXPpBsbDHWZ4coB-26" edge="1">
          <mxGeometry relative="1" as="geometry" />
        </mxCell>
        <mxCell id="1jEjLnXPpBsbDHWZ4coB-3" value="Servicios" style="whiteSpace=wrap;html=1;align=center;shadow=1;" parent="1" vertex="1">
          <mxGeometry x="245" y="255" width="70" height="30" as="geometry" />
        </mxCell>
        <mxCell id="1jEjLnXPpBsbDHWZ4coB-4" value="Ofrece" style="shape=rhombus;perimeter=rhombusPerimeter;whiteSpace=wrap;html=1;align=center;shadow=1;" parent="1" vertex="1">
          <mxGeometry x="270" y="157.5" width="60" height="30" as="geometry" />
        </mxCell>
        <mxCell id="1jEjLnXPpBsbDHWZ4coB-6" value="" style="edgeStyle=orthogonalEdgeStyle;fontSize=12;html=1;endArrow=ERoneToMany;rounded=0;entryX=0.5;entryY=0;entryDx=0;entryDy=0;exitX=0.25;exitY=1;exitDx=0;exitDy=0;shadow=1;" parent="1" source="mSlNE_2HwevDB6tWxFrl-1" target="1jEjLnXPpBsbDHWZ4coB-4" edge="1">
          <mxGeometry width="100" height="100" relative="1" as="geometry">
            <mxPoint x="-230" y="290" as="sourcePoint" />
            <mxPoint x="-130" y="190" as="targetPoint" />
          </mxGeometry>
        </mxCell>
        <mxCell id="1jEjLnXPpBsbDHWZ4coB-7" value="" style="edgeStyle=orthogonalEdgeStyle;fontSize=12;html=1;endArrow=none;rounded=0;startArrow=ERoneToMany;startFill=0;endFill=0;shadow=1;" parent="1" target="1jEjLnXPpBsbDHWZ4coB-3" edge="1">
          <mxGeometry width="100" height="100" relative="1" as="geometry">
            <mxPoint x="300" y="190" as="sourcePoint" />
            <mxPoint x="310" y="168" as="targetPoint" />
          </mxGeometry>
        </mxCell>
        <mxCell id="1jEjLnXPpBsbDHWZ4coB-8" value="Requiere&amp;nbsp;" style="shape=rhombus;perimeter=rhombusPerimeter;whiteSpace=wrap;html=1;align=center;shadow=1;" parent="1" vertex="1">
          <mxGeometry x="220" y="370" width="80" height="30" as="geometry" />
        </mxCell>
        <mxCell id="1jEjLnXPpBsbDHWZ4coB-9" value="" style="edgeStyle=orthogonalEdgeStyle;fontSize=12;html=1;endArrow=ERoneToMany;rounded=0;exitX=0.5;exitY=1;exitDx=0;exitDy=0;shadow=1;" parent="1" source="1jEjLnXPpBsbDHWZ4coB-3" target="1jEjLnXPpBsbDHWZ4coB-8" edge="1">
          <mxGeometry width="100" height="100" relative="1" as="geometry">
            <mxPoint x="310" y="200" as="sourcePoint" />
            <mxPoint x="305" y="260" as="targetPoint" />
          </mxGeometry>
        </mxCell>
        <mxCell id="1jEjLnXPpBsbDHWZ4coB-11" value="" style="edgeStyle=orthogonalEdgeStyle;fontSize=12;html=1;endArrow=ERoneToMany;rounded=0;exitX=0.5;exitY=0;exitDx=0;exitDy=0;entryX=0.5;entryY=1;entryDx=0;entryDy=0;shadow=1;" parent="1" source="mSlNE_2HwevDB6tWxFrl-8" target="1jEjLnXPpBsbDHWZ4coB-8" edge="1">
          <mxGeometry width="100" height="100" relative="1" as="geometry">
            <mxPoint x="300" y="295" as="sourcePoint" />
            <mxPoint x="305" y="360" as="targetPoint" />
          </mxGeometry>
        </mxCell>
        <mxCell id="1jEjLnXPpBsbDHWZ4coB-12" value="Descripción&amp;nbsp;" style="ellipse;whiteSpace=wrap;html=1;align=center;shadow=1;" parent="1" vertex="1">
          <mxGeometry x="175" y="295" width="90" height="30" as="geometry" />
        </mxCell>
        <mxCell id="1jEjLnXPpBsbDHWZ4coB-14" value="Nombre" style="ellipse;whiteSpace=wrap;html=1;align=center;shadow=1;" parent="1" vertex="1">
          <mxGeometry x="225" y="192.5" width="60" height="30" as="geometry" />
        </mxCell>
        <mxCell id="1jEjLnXPpBsbDHWZ4coB-16" value="Nombre" style="ellipse;whiteSpace=wrap;html=1;align=center;shadow=1;" parent="1" vertex="1">
          <mxGeometry x="580" y="550" width="60" height="30" as="geometry" />
        </mxCell>
        <mxCell id="1jEjLnXPpBsbDHWZ4coB-20" value="MedioDePago" style="ellipse;whiteSpace=wrap;html=1;align=center;shadow=1;" parent="1" vertex="1">
          <mxGeometry x="240" y="660" width="100" height="30" as="geometry" />
        </mxCell>
        <mxCell id="1jEjLnXPpBsbDHWZ4coB-24" value="Medida" style="ellipse;whiteSpace=wrap;html=1;align=center;shadow=1;" parent="1" vertex="1">
          <mxGeometry x="310" y="184" width="60" height="30" as="geometry" />
        </mxCell>
        <mxCell id="1jEjLnXPpBsbDHWZ4coB-26" value="CostoXMedidad" style="ellipse;whiteSpace=wrap;html=1;align=center;shadow=1;" parent="1" vertex="1">
          <mxGeometry x="285" y="325" width="110" height="30" as="geometry" />
        </mxCell>
        <mxCell id="1jEjLnXPpBsbDHWZ4coB-29" value="Descripción&amp;nbsp;" style="ellipse;whiteSpace=wrap;html=1;align=center;shadow=1;" parent="1" vertex="1">
          <mxGeometry x="-120" y="-75" width="90" height="30" as="geometry" />
        </mxCell>
        <mxCell id="1jEjLnXPpBsbDHWZ4coB-30" value="Precio" style="ellipse;whiteSpace=wrap;html=1;align=center;shadow=1;" parent="1" vertex="1">
          <mxGeometry x="-45" y="-120" width="60" height="30" as="geometry" />
        </mxCell>
        <mxCell id="1jEjLnXPpBsbDHWZ4coB-34" value="Categoría&amp;nbsp;" style="ellipse;whiteSpace=wrap;html=1;align=center;shadow=1;" parent="1" vertex="1">
          <mxGeometry x="12.5" y="-105" width="80" height="30" as="geometry" />
        </mxCell>
        <mxCell id="1jEjLnXPpBsbDHWZ4coB-37" value="Tipo" style="ellipse;whiteSpace=wrap;html=1;align=center;shadow=1;" parent="1" vertex="1">
          <mxGeometry x="-150" y="155" width="50" height="30" as="geometry" />
        </mxCell>
        <mxCell id="1jEjLnXPpBsbDHWZ4coB-40" value="Capacidad&amp;nbsp;" style="ellipse;whiteSpace=wrap;html=1;align=center;shadow=1;" parent="1" vertex="1">
          <mxGeometry x="-180" y="190" width="80" height="30" as="geometry" />
        </mxCell>
        <mxCell id="1jEjLnXPpBsbDHWZ4coB-42" value="Descripción&amp;nbsp;" style="ellipse;whiteSpace=wrap;html=1;align=center;shadow=1;" parent="1" vertex="1">
          <mxGeometry x="-95" y="77.5" width="90" height="30" as="geometry" />
        </mxCell>
        <mxCell id="1jEjLnXPpBsbDHWZ4coB-43" value="CheckIn" style="ellipse;whiteSpace=wrap;html=1;align=center;shadow=1;" parent="1" vertex="1">
          <mxGeometry x="-210" y="350" width="80" height="30" as="geometry" />
        </mxCell>
        <mxCell id="1jEjLnXPpBsbDHWZ4coB-44" value="CheckOut" style="ellipse;whiteSpace=wrap;html=1;align=center;shadow=1;" parent="1" vertex="1">
          <mxGeometry x="-150" y="300" width="80" height="30" as="geometry" />
        </mxCell>
        <mxCell id="1jEjLnXPpBsbDHWZ4coB-45" value="CantidadHabitaciones" style="ellipse;whiteSpace=wrap;html=1;align=center;shadow=1;" parent="1" vertex="1">
          <mxGeometry x="-250" y="390" width="140" height="30" as="geometry" />
        </mxCell>
        <mxCell id="1jEjLnXPpBsbDHWZ4coB-50" value="CantidadPersonas" style="ellipse;whiteSpace=wrap;html=1;align=center;shadow=1;" parent="1" vertex="1">
          <mxGeometry x="-240" y="430" width="120" height="30" as="geometry" />
        </mxCell>
        <mxCell id="1jEjLnXPpBsbDHWZ4coB-52" value="TipoDocumento" style="ellipse;whiteSpace=wrap;html=1;align=center;shadow=1;" parent="1" vertex="1">
          <mxGeometry x="-225" y="585" width="110" height="30" as="geometry" />
        </mxCell>
        <mxCell id="1jEjLnXPpBsbDHWZ4coB-55" value="Placa" style="ellipse;whiteSpace=wrap;html=1;align=center;shadow=1;" parent="1" vertex="1">
          <mxGeometry x="-135" y="780" width="50" height="30" as="geometry" />
        </mxCell>
        <mxCell id="1jEjLnXPpBsbDHWZ4coB-56" value="Modelo" style="ellipse;whiteSpace=wrap;html=1;align=center;shadow=1;" parent="1" vertex="1">
          <mxGeometry x="-115" y="850" width="60" height="30" as="geometry" />
        </mxCell>
        <mxCell id="1jEjLnXPpBsbDHWZ4coB-59" value="Color&amp;nbsp;" style="ellipse;whiteSpace=wrap;html=1;align=center;shadow=1;" parent="1" vertex="1">
          <mxGeometry x="-25" y="860" width="60" height="30" as="geometry" />
        </mxCell>
        <mxCell id="1jEjLnXPpBsbDHWZ4coB-61" value="Empresa" style="ellipse;whiteSpace=wrap;html=1;align=center;shadow=1;" parent="1" vertex="1">
          <mxGeometry x="-20" y="-180" width="80" height="30" as="geometry" />
        </mxCell>
        <mxCell id="1jEjLnXPpBsbDHWZ4coB-62" value="Precio" style="ellipse;whiteSpace=wrap;html=1;align=center;shadow=1;" parent="1" vertex="1">
          <mxGeometry x="-190" y="230" width="60" height="30" as="geometry" />
        </mxCell>
        <mxCell id="1jEjLnXPpBsbDHWZ4coB-65" value="Habitaciones" style="ellipse;whiteSpace=wrap;html=1;align=center;shadow=1;" parent="1" vertex="1">
          <mxGeometry x="-35" y="460" width="90" height="30" as="geometry" />
        </mxCell>
        <mxCell id="1jEjLnXPpBsbDHWZ4coB-66" value="Tipo" style="ellipse;whiteSpace=wrap;html=1;align=center;shadow=1;" parent="1" vertex="1">
          <mxGeometry x="30" y="410" width="50" height="30" as="geometry" />
        </mxCell>
        <mxCell id="sG3nrbQRyBPmfrfPCZkz-1" value="Teléfono&amp;nbsp;" style="ellipse;whiteSpace=wrap;html=1;align=center;shadow=1;" parent="1" vertex="1">
          <mxGeometry x="200" y="-15" width="60" height="30" as="geometry" />
        </mxCell>
        <mxCell id="sG3nrbQRyBPmfrfPCZkz-2" style="edgeStyle=orthogonalEdgeStyle;rounded=0;orthogonalLoop=1;jettySize=auto;html=1;exitX=0;exitY=0;exitDx=0;exitDy=0;entryX=0.65;entryY=1.133;entryDx=0;entryDy=0;entryPerimeter=0;" parent="1" source="mSlNE_2HwevDB6tWxFrl-1" target="sG3nrbQRyBPmfrfPCZkz-1" edge="1">
          <mxGeometry relative="1" as="geometry" />
        </mxCell>
        <mxCell id="sG3nrbQRyBPmfrfPCZkz-3" value="Nombre" style="ellipse;whiteSpace=wrap;html=1;align=center;shadow=1;" parent="1" vertex="1">
          <mxGeometry x="545" y="-52.5" width="60" height="30" as="geometry" />
        </mxCell>
      </root>
    </mxGraphModel>
  </diagram>
</mxfile>
